<svg id="Group_867" data-name="Group 867" xmlns="http://www.w3.org/2000/svg" xmlns:xlink="http://www.w3.org/1999/xlink" width="9.46" height="19.531" viewBox="0 0 9.46 19.531">
  <defs>
    <clipPath id="clip-path">
      <rect id="Rectangle_574" data-name="Rectangle 574" width="9.46" height="19.531" transform="translate(0 0)" fill="none"/>
    </clipPath>
  </defs>
  <g id="Group_866" data-name="Group 866" clip-path="url(#clip-path)">
    <path id="Path_77" data-name="Path 77" d="M5.42,3.9s.1-.1.4,0a4.145,4.145,0,0,1-.2-1.6,2.9,2.9,0,0,1,.9-1.5c.3-.2.6-.3.2-.6s-.5-.3-.8.2a2.756,2.756,0,0,0-.5,3.5" fill="#d50032"/>
    <path id="Path_78" data-name="Path 78" d="M4.42,6.505h.2l.6.6a3.128,3.128,0,0,0,.5-1l.1-.2.2.1a6.362,6.362,0,0,0,1,.6l.3-.9v-.3l.2.1a5.16,5.16,0,0,0,1.1.2,3.126,3.126,0,0,0-.9-1.1c-1.2-1-3.9-.9-4,2.2.3.1.5-.1.7-.3" fill="#d50032"/>
    <path id="Path_79" data-name="Path 79" d="M8.92,6.3a5.853,5.853,0,0,1-1.3-.2,4.179,4.179,0,0,1-.4,1l-.1.2-.1-.2-.9-.6a8.794,8.794,0,0,1-.6,1h-.1l-.1-.1a4.349,4.349,0,0,1-.7-.6,2.623,2.623,0,0,1-.8.6c.1.7.5,5,0,6.3a10.166,10.166,0,0,1-3.2,4.7c-2,1.6,1.3,1.4,3.4,0,2.2-1.4,4.6-3.2,5.2-7a8.852,8.852,0,0,0-.3-5.1" fill="#d50032"/>
  </g>
</svg>
