<svg width="3333" height="725" viewBox="0 0 3333 725" fill="none" xmlns="http://www.w3.org/2000/svg">
<path d="M2081.99 718.56V720.38H2135.51V718.56C2127.54 717.88 2121.39 717.42 2113.42 694.88L2064.46 554.6H2052.39L2006.16 695.56C2001.38 709.91 1995.68 717.65 1984.3 718.56V720.38H2022.79V718.56C2015.96 718.56 2009.58 717.19 2009.58 707.17C2009.58 703.75 2011.17 697.38 2012.31 693.96L2025.29 653.65H2081.99L2096.56 697.14C2096.56 697.37 2096.79 698.05 2097.02 698.51C2098.61 703.52 2099.07 707.16 2099.07 708.53C2099.07 719.23 2089.05 718.55 2081.99 718.55V718.56ZM2027.11 647.74L2052.16 570.09H2052.62L2079.26 647.74H2027.11Z" fill="white"/>
<path d="M2328.14 718.56V720.38H2380.06V718.56C2372.77 718.56 2362.52 714.69 2362.52 700.57V576.23C2362.52 562.34 2371.63 558.47 2380.06 558.47V556.65H2328.14V558.47C2335.2 558.47 2345.67 560.97 2345.67 576.23V700.57C2345.67 714.69 2336.11 718.56 2328.14 718.56Z" fill="white"/>
<path d="M2150.75 718.561H2148.47V720.381H2222.02C2247.75 720.381 2260.28 714.461 2267.79 709.901C2291.47 695.551 2306.27 671.421 2306.27 641.581C2306.27 619.261 2298.07 598.311 2282.13 582.371C2270.52 570.761 2248.2 556.641 2211.54 556.641H2148.46V558.461H2150.74C2158.71 558.461 2166 563.701 2166 576.911V700.561C2166 707.621 2161.9 718.551 2150.74 718.551L2150.75 718.561ZM2182.86 564.391C2188.33 563.481 2197.66 561.661 2209.96 561.661C2239.11 561.661 2258.24 572.821 2270.08 588.531C2281.92 604.241 2286.7 624.511 2286.7 642.731C2286.7 669.601 2277.82 685.771 2268.03 696.241C2251.18 714.001 2233.64 715.371 2214.29 715.371C2191.75 715.371 2182.86 713.551 2182.86 694.191V564.391Z" fill="white"/>
<path d="M1622.92 645.46C1663.68 645.46 1679.17 623.37 1679.17 601.28C1679.17 579.19 1661.18 556.65 1624.74 556.65H1571V558.47H1573.28C1576.7 559.38 1588.54 560.06 1588.54 576.69V700.57C1588.54 714.46 1579.66 718.33 1571.01 718.56V720.38H1623.16V718.56C1616.1 718.33 1605.4 715.83 1605.4 700.57V644.09C1609.73 644.54 1615.42 645.46 1622.94 645.46H1622.92ZM1605.38 562.34C1609.02 561.66 1614.26 560.97 1621.09 560.97C1649.1 560.97 1660.26 580.33 1660.26 602.64C1660.26 635.66 1638.63 641.12 1622.23 641.12C1613.8 641.12 1609.02 640.21 1605.38 639.53V562.33V562.34Z" fill="white"/>
<path d="M1915.75 669.601L1935.34 701.941C1935.57 702.171 1939.21 707.861 1941.26 710.821C1944.68 715.831 1946.5 717.881 1948.32 720.381H1978.15V718.561C1973.14 718.101 1965.17 717.881 1950.14 692.371L1935.34 667.321C1928.28 655.481 1920.31 645.001 1908.24 639.081V638.621C1932.15 634.291 1942.63 616.531 1942.63 599.451C1942.63 583.511 1933.29 556.641 1894.81 556.641H1838.11V558.921H1840.39C1846.08 558.921 1855.65 562.341 1855.65 576.681V700.561C1855.65 714.681 1846.54 718.321 1838.12 718.551V720.371H1890.27V718.551C1883.21 718.321 1872.51 715.821 1872.51 700.561V640.671C1883.44 640.671 1898.7 641.351 1915.78 669.591L1915.75 669.601ZM1872.48 561.891C1874.76 561.441 1877.49 560.981 1882.73 560.981C1915.52 560.981 1923.72 584.661 1923.72 600.831C1923.72 622.691 1912.33 636.361 1881.82 636.361H1872.48V561.891Z" fill="white"/>
<path d="M1772.3 718.56V720.38H1825.82V718.56C1817.85 717.88 1811.7 717.42 1803.73 694.88L1754.77 554.6H1742.7L1696.47 695.56C1691.69 709.91 1685.99 717.65 1674.61 718.56V720.38H1713.1V718.56C1706.27 718.56 1699.89 717.19 1699.89 707.17C1699.89 703.75 1701.48 697.38 1702.62 693.96L1715.6 653.65H1772.3L1786.87 697.14C1786.87 697.37 1787.1 698.05 1787.33 698.51C1788.92 703.52 1789.38 707.16 1789.38 708.53C1789.38 719.23 1779.36 718.55 1772.3 718.55V718.56ZM1717.42 647.74L1742.47 570.09H1742.93L1769.57 647.74H1717.42Z" fill="white"/>
<path d="M2442.45 719.01C2421.04 719.01 2404.19 707.4 2398.73 682.57H2396.91V723.56H2398.73C2399.87 718.78 2400.1 714.68 2403.74 714.68C2405.56 714.68 2407.61 715.59 2408.29 715.82C2416.03 719.69 2426.74 724.02 2441.99 724.02C2475.69 724.02 2490.72 701.48 2490.72 681.66C2490.72 655.93 2469.09 644.09 2452.69 634.98C2428.55 621.77 2415.12 614.26 2415.12 592.4C2415.12 573.04 2427.64 558.24 2447.23 558.24C2467.95 558.24 2479.11 574.18 2480.93 588.07H2482.75V553H2480.93C2479.56 558.01 2476.38 558.01 2475.92 558.01C2474.1 558.01 2471.59 557.33 2471.14 557.1C2463.85 554.82 2457.02 553.46 2449.05 553.46C2419.22 553.46 2400.09 575.78 2400.09 599C2400.09 627.24 2421.27 638.4 2441.76 649.33C2461.34 659.81 2475.69 669.83 2475.69 689.64C2475.69 701.03 2469.54 719.02 2442.44 719.02L2442.45 719.01Z" fill="white"/>
<path d="M2509.17 718.561H2506.89V720.381H2604.58L2610.27 694.651H2608.68C2604.58 706.491 2598.43 715.371 2579.76 715.371H2555.39C2541.27 715.371 2541.27 704.211 2541.27 699.201V641.131H2572.7C2573.38 641.131 2578.39 641.361 2581.13 641.811C2583.41 641.811 2592.97 643.181 2595.25 657.071H2596.84V619.951H2595.25C2593.66 635.891 2578.4 636.121 2571.34 636.121H2541.28V561.651H2575.44C2585.23 561.651 2602.99 563.021 2602.99 582.371H2604.58V556.641H2506.89V558.461H2509.17C2521.47 558.461 2524.43 569.391 2524.43 577.131V700.561C2524.43 714.911 2513.96 718.551 2509.17 718.551V718.561Z" fill="white"/>
<path d="M1289.22 376.99C1389.62 481.51 1418.05 516.8 1447.14 516.8C1483.74 516.8 1491.68 464.07 1491.68 432.06H1478.88C1478.88 443.55 1476.98 454.43 1474.9 462.88C1472.51 472.66 1462.31 478.49 1452.76 475.26C1434.15 468.96 1413.12 457.26 1391.89 436.29C1388.24 432.69 1384.56 428.94 1380.84 425.06V99.5204C1380.84 57.4904 1394.19 50.4204 1416.65 47.0004C1450.51 52.4904 1450.52 75.9103 1450.52 89.7203V284.6C1450.52 303.65 1450.52 342.85 1467.4 374.42C1487 411.44 1533.81 443.55 1591.51 443.55C1634.52 443.55 1688.95 425.04 1713.45 367.34L1714.54 368.43V433.21H1909.42V428.86C1892.54 428.32 1866.96 422.33 1866.96 385.85V242.68C1893.09 242.68 1929.56 244.31 1970.39 311.81L2017.21 389.11C2017.75 389.65 2026.46 403.26 2031.36 410.34C2039.52 422.32 2043.88 427.22 2048.23 433.2H2119.54V428.85C2107.56 427.76 2088.51 427.22 2052.58 366.25L2017.2 306.37C2000.32 278.06 1981.27 253.02 1952.42 238.87V237.78C2009.58 227.44 2034.62 184.98 2034.62 144.15C2034.62 106.04 2012.3 41.8103 1920.3 41.8103H1672.08V46.1603C1714.54 49.9703 1714.54 77.1903 1714.54 89.7103V303.65C1714.54 360.81 1691.68 392.93 1666.09 410.35C1640.5 427.77 1611.65 431.04 1599.13 431.04C1555.58 431.04 1519.65 407.63 1502.78 367.89C1493.53 346.12 1490.8 317.26 1490.8 281.34V89.7203C1490.8 78.2903 1490.8 51.0703 1532.72 46.1703V41.8203H1422.78H1324.23V46.1703C1367.78 47.8103 1368.88 74.4904 1368.88 120.75V412.16C1366.12 409.12 1363.36 406.03 1360.55 402.82C1302.98 337.46 1232.21 239.79 1114.42 113.58C1087.18 84.3703 1064.31 60.1503 1041.71 41.8003C1009.95 16.0303 978.62 1.90039 936.05 1.90039C863.17 1.90039 839 58.1803 839 58.1803C839 58.1803 885.31 51.3204 929.5 52.3804C929.9 52.3804 930.32 52.4004 930.74 52.4004C967.51 53.4504 1002.78 67.2404 1030.65 91.2504C1036.57 96.3804 1042.42 101.55 1047.36 106.18C1054.83 113.2 1062.43 120.83 1070.25 129.04L1065.69 348.82C1065.69 415.78 1055.35 427.22 1023.21 428.83V433.21H1121.2V428.83C1107.6 428.29 1093.98 423.94 1086.91 414.13C1081.46 406.52 1077.64 392.9 1077.64 348.27L1082.2 141.86C1135.75 200.44 1199.45 283.54 1289.22 376.97V376.99ZM1866.96 54.3403C1872.4 53.2503 1878.94 52.1603 1891.46 52.1603C1969.85 52.1603 1989.45 108.77 1989.45 147.42C1989.45 199.68 1962.23 232.34 1889.29 232.34H1866.97V54.3303L1866.96 54.3403ZM1754.83 89.1803C1754.83 81.1703 1755.32 53.3604 1788.03 47.2604H1790.21C1803.82 47.2604 1826.68 55.4303 1826.68 89.7203V385.85C1826.68 415.15 1810.27 425.57 1792.76 428.17C1771.27 424.26 1754.83 417.15 1754.83 385.85V89.1703V89.1803ZM1070.74 106.08C1066.64 101.96 1062.6 98.0304 1058.57 94.2604C1053.91 89.8804 1048.11 84.6904 1041.35 78.8604C1010.62 52.3904 971.52 37.1803 931.19 36.0603L929.97 36.0104C926.58 35.9404 923.25 35.8904 919.95 35.8904C904.55 35.8904 889.41 36.6903 876.33 37.7203C889.25 27.4903 908.51 18.3003 936.05 18.3003C966.43 18.3003 990.3 26.0503 1014.12 41.8203C1040.64 59.4003 1067.1 86.8904 1102.44 124.76C1178.38 206.13 1235.09 276.08 1280.65 332.27C1284.28 336.74 1287.83 341.14 1291.35 345.45C1291.37 345.5 1291.4 345.54 1291.44 345.59C1325.54 387.6 1353.46 421.39 1380.37 447.98C1400.96 468.27 1423.55 482.69 1447.51 490.78C1450.95 491.95 1454.55 492.54 1458.16 492.54C1459.35 492.54 1460.52 492.47 1461.67 492.35C1457.86 497.36 1453.08 500.42 1447.14 500.42C1439.82 500.42 1430.76 495.44 1418.4 485.07C1418.28 484.98 1418.14 484.88 1418.03 484.79C1383.49 458.34 1333.52 401.48 1304.83 369.62C1304.78 369.55 1304.71 369.5 1304.67 369.43C1303.48 368.19 1302.24 366.93 1301.02 365.64C1245.74 308.07 1200.71 254.85 1161 207.9C1132.4 174.08 1106.71 143.68 1082.72 118.41C1078.67 114.15 1074.69 110.03 1070.74 106.08Z" fill="white"/>
<path d="M2502.22 377.09C2602.62 481.61 2631.05 516.9 2660.14 516.9C2696.74 516.9 2704.68 464.17 2704.68 432.16H2691.88C2691.88 443.65 2689.98 454.53 2687.9 462.98C2685.51 472.76 2675.31 478.59 2665.76 475.36C2647.15 469.06 2626.12 457.36 2604.89 436.39C2601.24 432.79 2597.56 429.04 2593.84 425.16V99.62C2593.84 57.59 2607.19 50.52 2629.65 47.1C2663.51 52.59 2663.52 76.0099 2663.52 89.8199V284.7C2663.52 303.75 2663.52 342.95 2680.4 374.52C2700 411.54 2746.81 443.65 2804.51 443.65C2847.52 443.65 2901.95 425.14 2926.45 367.44L2927.54 368.53V433.31H3122.42V428.96C3105.54 428.42 3079.96 422.43 3079.96 385.95V242.78C3106.09 242.78 3142.56 244.41 3183.39 311.91L3230.21 389.21C3230.75 389.75 3239.46 403.36 3244.36 410.44C3252.52 422.42 3256.88 427.32 3261.23 433.3H3332.54V428.95C3320.56 427.86 3301.51 427.32 3265.58 366.35L3230.2 306.47C3213.32 278.16 3194.27 253.12 3165.42 238.97V237.88C3222.58 227.54 3247.62 185.08 3247.62 144.25C3247.62 106.14 3225.3 41.9099 3133.3 41.9099H2885.08V46.2599C2927.54 50.0699 2927.54 77.2899 2927.54 89.8099V303.75C2927.54 360.91 2904.68 393.03 2879.09 410.45C2853.5 427.87 2824.65 431.14 2812.13 431.14C2768.58 431.14 2732.65 407.73 2715.78 367.99C2706.53 346.22 2703.8 317.36 2703.8 281.44V89.8199C2703.8 78.3899 2703.8 51.1699 2745.72 46.2699V41.9199H2635.78H2537.23V46.2699C2580.78 47.9099 2581.88 74.59 2581.88 120.85V412.26C2579.12 409.22 2576.36 406.13 2573.55 402.92C2515.98 337.56 2445.21 239.89 2327.42 113.68C2300.18 84.4699 2277.31 60.2499 2254.71 41.8999C2222.95 16.1299 2191.62 2 2149.05 2C2076.17 2 2052 58.2799 2052 58.2799C2052 58.2799 2098.31 51.42 2142.5 52.48C2142.9 52.48 2143.32 52.5 2143.74 52.5C2180.51 53.55 2215.78 67.34 2243.65 91.35C2249.57 96.48 2255.42 101.65 2260.36 106.28C2267.83 113.3 2275.43 120.93 2283.25 129.14L2278.69 348.92C2278.69 415.88 2268.35 427.32 2236.21 428.93V433.31H2334.2V428.93C2320.6 428.39 2306.98 424.04 2299.91 414.23C2294.46 406.62 2290.64 393 2290.64 348.37L2295.2 141.96C2348.75 200.54 2412.45 283.64 2502.22 377.07V377.09ZM3079.96 54.4399C3085.4 53.3499 3091.94 52.2599 3104.46 52.2599C3182.85 52.2599 3202.45 108.87 3202.45 147.52C3202.45 199.78 3175.23 232.44 3102.29 232.44H3079.97V54.4299L3079.96 54.4399ZM2967.83 89.2799C2967.83 81.2699 2968.32 53.46 3001.03 47.36H3003.21C3016.82 47.36 3039.68 55.5299 3039.68 89.8199V385.95C3039.68 415.25 3023.27 425.67 3005.76 428.27C2984.27 424.36 2967.83 417.25 2967.83 385.95V89.2699V89.2799ZM2283.74 106.18C2279.64 102.06 2275.6 98.13 2271.57 94.36C2266.91 89.98 2261.11 84.79 2254.35 78.96C2223.62 52.49 2184.52 37.2799 2144.19 36.1599L2142.97 36.11C2139.58 36.04 2136.25 35.99 2132.95 35.99C2117.55 35.99 2102.41 36.7899 2089.33 37.8199C2102.25 27.5899 2121.51 18.3999 2149.05 18.3999C2179.43 18.3999 2203.3 26.1499 2227.12 41.9199C2253.64 59.4999 2280.1 86.99 2315.44 124.86C2391.38 206.23 2448.09 276.18 2493.65 332.37C2497.28 336.84 2500.83 341.24 2504.35 345.55C2504.37 345.6 2504.4 345.64 2504.44 345.69C2538.54 387.7 2566.46 421.49 2593.37 448.08C2613.96 468.37 2636.55 482.79 2660.51 490.88C2663.95 492.05 2667.55 492.64 2671.16 492.64C2672.35 492.64 2673.52 492.57 2674.67 492.45C2670.86 497.46 2666.08 500.52 2660.14 500.52C2652.82 500.52 2643.76 495.54 2631.4 485.17C2631.28 485.08 2631.14 484.98 2631.03 484.89C2596.49 458.44 2546.52 401.58 2517.83 369.72C2517.78 369.65 2517.71 369.6 2517.67 369.53C2516.48 368.29 2515.24 367.03 2514.02 365.74C2458.74 308.17 2413.71 254.95 2374 208C2345.4 174.18 2319.71 143.78 2295.72 118.51C2291.67 114.25 2287.69 110.13 2283.74 106.18Z" fill="white"/>
<path d="M598.633 141.744C579.926 141.744 564.758 156.152 564.758 173.915C564.758 191.677 579.926 206.107 598.633 206.107C611.868 206.107 623.333 198.886 628.925 188.398C620.988 188.192 616.819 190.418 612.769 192.633C614.615 189.603 617.036 185.814 619.533 182.481C624.669 175.63 620.706 167.878 615.027 164.273C612.389 162.601 611.477 160.191 611.238 158.084C620.89 161.483 623.485 169.333 632.508 172.688C631.824 155.49 616.927 141.744 598.633 141.744ZM602.324 183.925C598.579 186.933 596.005 192.926 594.746 196.422C585.148 194.685 577.906 186.672 577.906 177.063C577.906 166.184 585.3 157.162 598.003 156.532C598.166 156.532 598.296 156.532 598.459 156.532C597.667 159.55 597.178 164.783 601.966 167.986C608.991 172.677 607.829 179.517 602.324 183.936V183.925Z" fill="white"/>
<path d="M710.905 540.437C710.905 443.763 654.468 366.242 632.276 339.739C659.267 342.79 681.818 332.063 692.892 315.332C704.314 298.058 700.992 271.968 690.504 257.668C684.315 249.243 675.358 250.231 675.358 250.231C675.358 250.231 685.987 263.781 685.987 286.636C685.987 309.49 659.148 326.754 637.096 324.593C621.494 323.062 596.881 310.793 597.771 292.477C598.9 269.155 625.935 255.28 625.935 255.28C625.935 255.28 608.639 252.978 595.524 267.082C593.396 251.512 574.211 246.474 574.211 246.474C571.279 252.457 577.576 257.56 582.506 264.856C584.004 267.082 581.528 269.85 579.183 268.547C573.809 265.54 569.281 261.946 565.688 258.591C559.597 252.88 551.725 249.558 543.387 249.156C530.108 248.526 518.61 241.741 518.61 233.76C518.61 223.261 526.72 216.486 526.72 216.486C512.617 221.383 502.975 240.981 516.037 257.451C523.973 267.472 536.036 269.525 544.266 269.611C549.781 269.666 554.884 272.239 558.533 276.365C567.229 286.201 578.065 287.884 585.795 284.605C580.779 303.812 591.235 325.625 614.22 335.222C636.412 361.465 689.483 434.632 689.483 534.564C689.483 642.779 641.049 717 641.049 717C641.049 717 710.916 649.25 710.916 540.427L710.905 540.437Z" fill="white"/>
<path d="M552.976 47.8159C552.976 36.8282 556.07 28.3703 566.081 28.3703C574.257 28.3703 581.444 57.8263 591.162 57.8263C600.879 57.8263 605.678 44.0158 605.96 17.8061L612.301 22.7353L613.853 15.2654C613.853 15.2654 619.206 20.477 621.323 28.2291C623.441 35.9813 628.511 39.4991 629.922 48.0981C631.334 56.6971 634.71 67.826 643.027 67.826C651.344 67.826 655.567 55.8503 656.838 47.2513C658.108 38.6522 660.214 35.4167 660.214 35.4167L664.579 41.0517C664.579 41.0517 667.825 37.6751 671.061 36.4048C671.061 36.4048 670.779 45.8507 672.896 54.7211C675.013 63.6024 678.813 67.8259 679.801 72.7552C680.789 77.6844 678.531 79.237 680.93 86.848C683.33 94.459 684.73 98.5414 691.082 98.5414C697.434 98.5414 707.151 92.2007 707.433 73.3198C707.433 73.3198 709.409 78.9548 714.762 87.9772C720.114 96.9997 722.514 98.2591 723.361 104.741C724.208 111.223 728.529 117.65 731.232 121.939C733.936 126.239 734.729 133.535 739.669 141.743C744.598 149.94 749.853 156.628 749.853 165.379C749.853 174.13 739.723 178.962 743.176 190.199C743.176 190.199 755.423 179.385 755.423 165.705C755.423 152.025 750.645 143.589 744.283 133.73C737.921 123.872 737.28 116.869 732.991 108.432C728.692 99.9963 728.692 88.8675 723.925 77.565C720.267 68.9225 717.27 65.2093 715.066 59.3138C713.676 55.5897 710.158 53.0708 706.174 53.0708C702.189 53.0708 698.801 55.4486 697.379 59.0532L697.357 59.1183C697.357 59.1183 691.375 52.1371 688.889 42.6369C686.402 33.1367 679.497 28.2834 675.621 21.3781C675.274 20.7484 674.872 20.1296 674.448 19.5216C670.051 13.2569 660.518 11.8563 655.394 17.5347C650.627 22.8222 647.12 24.7548 640.997 24.2228C632.615 23.4953 623.766 0 613.897 0C606.232 0 597.611 8.7185 594.582 18.0233C591.455 27.632 591.02 36.155 591.02 36.155C591.02 36.155 587.622 32.4852 587.285 26.1879C587.199 24.6896 585.841 23.6256 584.365 23.8971C581.292 24.4725 577.818 22.3879 574.018 18.1861C569.186 12.8334 560.696 13.018 556.353 18.7724C551.141 25.6886 545.832 34.8847 545.832 43.6575C545.832 63.787 552.194 83.8406 552.194 83.8406C552.194 83.8406 553.009 58.8035 553.009 47.8159H552.976Z" fill="white"/>
<path d="M253.726 252.674C357.414 185.076 354.591 172.481 416.38 139.062C478.169 105.643 530.578 96.154 575.473 107.37C620.358 118.596 645.72 145.501 669.433 174.045C685.621 193.534 698.639 208.354 705.284 215.813C697.803 216.432 691.386 216.269 686.729 215.9C681.246 215.476 675.795 216.692 671.05 219.472C668.412 221.025 665.296 222.762 662.126 224.369C653.689 228.625 647.989 232.197 647.989 232.197C666.859 235.063 687.119 234.368 708.552 234.835C694.73 246.637 676.251 237.625 661.344 247.571C676.859 248.602 701.071 245.54 719.485 245.54C734.696 245.54 749.669 254.031 771.318 262.836C778.017 265.561 785.107 259.59 783.435 252.554C778.071 229.873 765.618 211.09 745.065 196.769C747.628 209.049 761.655 217.3 763.849 236.876C732.178 235.031 727.65 218.104 727.65 218.104C730.647 216.486 733.166 214.423 735.272 211.948C738.475 208.169 735.272 202.437 730.386 203.218L726.705 203.805C724.957 204.087 723.991 201.85 725.392 200.776C727.107 199.451 726.097 196.682 723.926 196.769C719.616 196.932 715.794 197.518 712.504 198.572C708.508 199.842 707.586 204.956 710.875 207.551C712.243 208.636 713.698 209.679 715.218 210.688C716.88 211.796 716.282 214.402 714.306 214.727C713.633 214.836 712.982 214.912 712.319 215.01C700.17 199.19 670.649 161.2 652.441 141.353C629.054 115.86 589.034 83.8418 532.369 83.8418C516.507 83.8418 497.148 87.099 477.485 91.7894C424.219 104.493 375.111 130.333 333.137 165.511C249.991 235.193 112.254 302.368 0 338.783C0 338.783 100.159 352.789 253.726 252.674Z" fill="white"/>
</svg>
