<svg width="3291" height="3291" viewBox="0 0 3291 3291" fill="none" xmlns="http://www.w3.org/2000/svg">
<path d="M1645.24 3290.48C2553.88 3290.48 3290.48 2553.88 3290.48 1645.24C3290.48 736.599 2553.88 0 1645.24 0C736.599 0 0 736.599 0 1645.24C0 2553.88 736.599 3290.48 1645.24 3290.48Z" fill="#758C6D"/>
<path d="M1645.24 3290.48C2553.88 3290.48 3290.48 2553.88 3290.48 1645.24C3290.48 736.599 2553.88 0 1645.24 0C736.599 0 0 736.599 0 1645.24C0 2553.88 736.599 3290.48 1645.24 3290.48Z" fill="#758C6D"/>
<path d="M1645.24 224.67C860.682 224.67 224.672 860.68 224.672 1645.24C224.672 2429.8 860.682 3065.81 1645.24 3065.81C2429.8 3065.81 3065.81 2429.8 3065.81 1645.24C3065.81 860.68 2429.8 224.67 1645.24 224.67ZM1645.24 3002.31C895.752 3002.31 288.172 2394.73 288.172 1645.24C288.172 895.75 895.752 288.17 1645.24 288.17C2394.73 288.17 3002.31 895.75 3002.31 1645.24C3002.31 2394.73 2394.73 3002.31 1645.24 3002.31Z" fill="white"/>
<path d="M1801.44 667.9C1784.21 667.9 1770.24 681.17 1770.24 697.53C1770.24 713.89 1784.21 727.18 1801.44 727.18C1813.63 727.18 1824.19 720.53 1829.34 710.87C1822.03 710.68 1818.19 712.73 1814.46 714.77C1816.16 711.98 1818.39 708.49 1820.69 705.42C1825.42 699.11 1821.77 691.97 1816.54 688.65C1814.11 687.11 1813.27 684.89 1813.05 682.95C1821.94 686.08 1824.33 693.31 1832.64 696.4C1832.01 680.56 1818.29 667.9 1801.44 667.9ZM1804.84 706.75C1801.39 709.52 1799.02 715.04 1797.86 718.26C1789.02 716.66 1782.35 709.28 1782.35 700.43C1782.35 690.41 1789.16 682.1 1800.86 681.52C1801.01 681.52 1801.13 681.52 1801.28 681.52C1800.55 684.3 1800.1 689.12 1804.51 692.07C1810.98 696.39 1809.91 702.69 1804.84 706.76V706.75Z" fill="white"/>
<path d="M1904.85 1035.11C1904.85 946.07 1852.87 874.67 1832.43 850.26C1857.29 853.07 1878.06 843.19 1888.26 827.78C1898.78 811.87 1895.72 787.84 1886.06 774.67C1880.36 766.91 1872.11 767.82 1872.11 767.82C1872.11 767.82 1881.9 780.3 1881.9 801.35C1881.9 822.4 1857.18 838.3 1836.87 836.31C1822.5 834.9 1799.83 823.6 1800.65 806.73C1801.69 785.25 1826.59 772.47 1826.59 772.47C1826.59 772.47 1810.66 770.35 1798.58 783.34C1796.62 769 1778.95 764.36 1778.95 764.36C1776.25 769.87 1782.05 774.57 1786.59 781.29C1787.97 783.34 1785.69 785.89 1783.53 784.69C1778.58 781.92 1774.41 778.61 1771.1 775.52C1765.49 770.26 1758.24 767.2 1750.56 766.83C1738.33 766.25 1727.74 760 1727.74 752.65C1727.74 742.98 1735.21 736.74 1735.21 736.74C1722.22 741.25 1713.34 759.3 1725.37 774.47C1732.68 783.7 1743.79 785.59 1751.37 785.67C1756.45 785.72 1761.15 788.09 1764.51 791.89C1772.52 800.95 1782.5 802.5 1789.62 799.48C1785 817.17 1794.63 837.26 1815.8 846.1C1836.24 870.27 1885.12 937.66 1885.12 1029.7C1885.12 1129.37 1840.51 1197.73 1840.51 1197.73C1840.51 1197.73 1904.86 1135.33 1904.86 1035.1L1904.85 1035.11Z" fill="white"/>
<path d="M1759.39 581.39C1759.39 571.27 1762.24 563.48 1771.46 563.48C1778.99 563.48 1785.61 590.61 1794.56 590.61C1803.51 590.61 1807.93 577.89 1808.19 553.75L1814.03 558.29L1815.46 551.41C1815.46 551.41 1820.39 556.21 1822.34 563.35C1824.29 570.49 1828.96 573.73 1830.26 581.65C1831.56 589.57 1834.67 599.82 1842.33 599.82C1849.99 599.82 1853.88 588.79 1855.05 580.87C1856.22 572.95 1858.16 569.97 1858.16 569.97L1862.18 575.16C1862.18 575.16 1865.17 572.05 1868.15 570.88C1868.15 570.88 1867.89 579.58 1869.84 587.75C1871.79 595.93 1875.29 599.82 1876.2 604.36C1877.11 608.9 1875.03 610.33 1877.24 617.34C1879.45 624.35 1880.74 628.11 1886.59 628.11C1892.44 628.11 1901.39 622.27 1901.65 604.88C1901.65 604.88 1903.47 610.07 1908.4 618.38C1913.33 626.69 1915.54 627.85 1916.32 633.82C1917.1 639.79 1921.08 645.71 1923.57 649.66C1926.06 653.62 1926.79 660.34 1931.34 667.9C1935.88 675.45 1940.72 681.61 1940.72 689.67C1940.72 697.73 1931.39 702.18 1934.57 712.53C1934.57 712.53 1945.85 702.57 1945.85 689.97C1945.85 677.37 1941.45 669.6 1935.59 660.52C1929.73 651.44 1929.14 644.99 1925.19 637.22C1921.23 629.45 1921.23 619.2 1916.84 608.79C1913.47 600.83 1910.71 597.41 1908.68 591.98C1907.4 588.55 1904.16 586.23 1900.49 586.23C1896.82 586.23 1893.7 588.42 1892.39 591.74L1892.37 591.8C1892.37 591.8 1886.86 585.37 1884.57 576.62C1882.28 567.87 1875.92 563.4 1872.35 557.04C1872.03 556.46 1871.66 555.89 1871.27 555.33C1867.22 549.56 1858.44 548.27 1853.72 553.5C1849.33 558.37 1846.1 560.15 1840.46 559.66C1832.74 558.99 1824.59 537.35 1815.5 537.35C1808.44 537.35 1800.5 545.38 1797.71 553.95C1794.83 562.8 1794.43 570.65 1794.43 570.65C1794.43 570.65 1791.3 567.27 1790.99 561.47C1790.91 560.09 1789.66 559.11 1788.3 559.36C1785.47 559.89 1782.27 557.97 1778.77 554.1C1774.32 549.17 1766.5 549.34 1762.5 554.64C1757.7 561.01 1752.81 569.48 1752.81 577.56C1752.81 596.1 1758.67 614.57 1758.67 614.57C1758.67 614.57 1759.42 591.51 1759.42 581.39H1759.39Z" fill="white"/>
<path d="M1483.77 770.07C1579.27 707.81 1576.67 696.21 1633.58 665.43C1690.49 634.65 1738.76 625.91 1780.11 636.24C1821.45 646.58 1844.81 671.36 1866.65 697.65C1881.56 715.6 1893.55 729.25 1899.67 736.12C1892.78 736.69 1886.87 736.54 1882.58 736.2C1877.53 735.81 1872.51 736.93 1868.14 739.49C1865.71 740.92 1862.84 742.52 1859.92 744C1852.15 747.92 1846.9 751.21 1846.9 751.21C1864.28 753.85 1882.94 753.21 1902.68 753.64C1889.95 764.51 1872.93 756.21 1859.2 765.37C1873.49 766.32 1895.79 763.5 1912.75 763.5C1926.76 763.5 1940.55 771.32 1960.49 779.43C1966.66 781.94 1973.19 776.44 1971.65 769.96C1966.71 749.07 1955.24 731.77 1936.31 718.58C1938.67 729.89 1951.59 737.49 1953.61 755.52C1924.44 753.82 1920.27 738.23 1920.27 738.23C1923.03 736.74 1925.35 734.84 1927.29 732.56C1930.24 729.08 1927.29 723.8 1922.79 724.52L1919.4 725.06C1917.79 725.32 1916.9 723.26 1918.19 722.27C1919.77 721.05 1918.84 718.5 1916.84 718.58C1912.87 718.73 1909.35 719.27 1906.32 720.24C1902.64 721.41 1901.79 726.12 1904.82 728.51C1906.08 729.51 1907.42 730.47 1908.82 731.4C1910.35 732.42 1909.8 734.82 1907.98 735.12C1907.36 735.22 1906.76 735.29 1906.15 735.38C1894.96 720.81 1867.77 685.82 1851 667.54C1829.46 644.06 1792.6 614.57 1740.41 614.57C1725.8 614.57 1707.97 617.57 1689.86 621.89C1640.8 633.59 1595.57 657.39 1556.91 689.79C1480.33 753.97 1353.47 815.84 1250.08 849.38C1250.08 849.38 1342.33 862.28 1483.77 770.07Z" fill="white"/>
<path d="M1239.86 2484.55C1237.66 2484.55 1235.74 2484.96 1234.11 2485.77C1232.48 2486.59 1229.75 2488.33 1225.92 2491.01C1219.79 2495.32 1215.48 2498.07 1212.99 2499.27C1210.5 2500.47 1207.68 2501.07 1204.52 2501.07C1200.98 2501.07 1199.21 2497.91 1199.21 2491.59C1199.21 2484.79 1201.56 2475.21 1206.25 2462.86C1212.28 2447.06 1218.08 2433.13 1223.63 2421.06C1225.26 2417.61 1227.77 2413.64 1231.17 2409.14C1234.57 2404.64 1237.3 2400.43 1239.36 2396.5C1241.42 2392.58 1242.45 2388.31 1242.45 2383.72C1242.45 2381.81 1241.68 2380.23 1240.15 2378.98C1238.33 2377.45 1235.36 2376.68 1231.24 2376.68C1223.96 2376.68 1219.08 2379.32 1216.59 2384.58C1210.65 2396.93 1201.12 2418.72 1188.01 2449.93C1187.34 2451.46 1186.45 2453.93 1185.35 2457.33C1184.25 2460.73 1183.46 2463.15 1182.98 2464.58C1179.91 2473.2 1178.38 2481.15 1178.38 2488.42C1178.38 2493.21 1178.86 2497.33 1179.82 2500.77C1181.54 2506.52 1184.58 2511.83 1188.94 2516.72C1193.3 2521.6 1197.58 2524.04 1201.8 2524.04C1211.57 2524.04 1221.67 2519.3 1232.11 2509.82L1244.18 2498.76C1245.9 2497.04 1247.12 2495.65 1247.84 2494.6C1248.56 2493.55 1248.92 2492.25 1248.92 2490.72C1248.92 2488.99 1248.35 2487.66 1247.2 2486.7C1245.48 2485.26 1243.03 2484.54 1239.87 2484.54L1239.86 2484.55Z" fill="white"/>
<path d="M1450.5 2513.99C1446.57 2513.13 1443.1 2511.96 1440.09 2510.47C1437.07 2508.98 1433.31 2506.23 1428.81 2502.21C1423.45 2497.23 1417.94 2491.44 1412.29 2484.83C1411.24 2483.49 1410.28 2482.15 1409.42 2480.81C1407.89 2478.32 1405.56 2474.71 1402.45 2469.97C1399.34 2465.23 1396.65 2461.02 1394.41 2457.33C1392.16 2453.65 1390.46 2450.36 1389.31 2447.49C1389.31 2446.72 1389.5 2446.17 1389.88 2445.84C1390.26 2445.51 1390.98 2445.19 1392.03 2444.91C1404.96 2441.17 1414.82 2437.82 1421.62 2434.85C1428.42 2431.88 1434.45 2427.57 1439.72 2421.92C1447.38 2413.68 1453.1 2405.14 1456.88 2396.28C1460.66 2387.42 1462.55 2379.11 1462.55 2371.36C1462.55 2362.94 1461.11 2355.94 1458.24 2350.39C1457.19 2348.19 1456.09 2346.47 1454.94 2345.22C1453.79 2343.98 1451.35 2342.01 1447.61 2339.33C1447.51 2339.33 1447.25 2339.12 1446.82 2338.68C1446.39 2338.25 1445.98 2337.94 1445.6 2337.75C1445.22 2337.56 1444.47 2337.23 1443.37 2336.74C1442.27 2336.26 1440.9 2335.74 1439.28 2335.16C1432.48 2332.96 1424.58 2331.86 1415.58 2331.86C1403.8 2331.86 1392.5 2333.99 1381.68 2338.25C1370.86 2342.51 1361.66 2347.37 1354.1 2352.83C1352.66 2353.79 1351.95 2355.03 1351.95 2356.56C1351.95 2358.19 1353.39 2360.75 1356.26 2364.24C1359.13 2367.74 1361.24 2369.48 1362.58 2369.48C1363.35 2369.48 1363.73 2369.91 1363.73 2370.77C1363.16 2371.92 1362.08 2374.74 1360.5 2379.24C1358.92 2383.74 1357.65 2386.66 1356.69 2388C1355.35 2389.82 1354.05 2392.5 1352.81 2396.04C1337.1 2441.05 1327.1 2479.59 1322.79 2511.67C1322.79 2512.24 1322.93 2512.82 1323.22 2513.39C1323.51 2513.96 1323.79 2514.45 1324.08 2514.83C1324.37 2515.21 1324.82 2515.62 1325.44 2516.05C1326.06 2516.48 1326.54 2516.77 1326.88 2516.91C1327.21 2517.05 1327.69 2517.29 1328.32 2517.63C1328.94 2517.97 1329.3 2518.13 1329.4 2518.13C1330.36 2518.61 1331.22 2519.09 1331.99 2519.57C1332.75 2520.05 1333.28 2520.36 1333.57 2520.5C1333.86 2520.64 1334.24 2520.76 1334.72 2520.86C1335.2 2520.95 1335.87 2521 1336.73 2521C1340.56 2521 1343.53 2520.5 1345.64 2519.49C1347.74 2518.48 1348.8 2517.22 1348.8 2515.68C1348.8 2510.03 1350 2500.67 1352.39 2487.6C1354.78 2474.53 1357.8 2462.15 1361.44 2450.47C1362.01 2448.46 1362.88 2447.45 1364.03 2447.45C1364.8 2447.45 1365.61 2448.17 1366.47 2449.61C1368.19 2452.58 1370.47 2456.65 1373.29 2461.82C1376.11 2466.99 1378.41 2471.09 1380.19 2474.1C1381.96 2477.11 1384.21 2480.85 1386.94 2485.3C1389.67 2489.75 1392.23 2493.51 1394.62 2496.58C1397.01 2499.64 1399.81 2502.95 1403.02 2506.49C1406.23 2510.03 1409.68 2513.31 1413.36 2516.33C1417.05 2519.35 1420.99 2522.19 1425.21 2524.88C1435.55 2531.3 1443.88 2534.5 1450.2 2534.5C1452.59 2534.5 1454.72 2534.12 1456.59 2533.35C1458.46 2532.58 1459.39 2531.53 1459.39 2530.19C1459.39 2527.22 1458.38 2523.87 1456.37 2520.14C1454.36 2516.41 1452.4 2514.35 1450.48 2513.96L1450.5 2513.99ZM1379.97 2425.79C1376.91 2425.79 1374.37 2425.07 1372.36 2423.64C1371.69 2423.16 1371.35 2422.49 1371.35 2421.63C1379.3 2396.73 1389.02 2374.66 1400.51 2355.41C1401.18 2354.36 1402.47 2353.49 1404.39 2352.83C1411.38 2350.44 1417.56 2349.24 1422.92 2349.24C1428.76 2349.24 1433.07 2350.63 1435.85 2353.41C1437.19 2354.75 1437.86 2357.48 1437.86 2361.6C1437.86 2373.66 1434.63 2384.63 1428.16 2394.49C1421.7 2404.35 1413.58 2412.4 1403.81 2418.62C1401.41 2420.15 1399.5 2421.18 1398.06 2421.71C1396.62 2422.24 1395.19 2422.6 1393.75 2422.79C1392.31 2422.98 1391.02 2423.27 1389.87 2423.65C1385.65 2425.09 1382.35 2425.8 1379.96 2425.8L1379.97 2425.79Z" fill="white"/>
<path d="M1264.35 2313.83C1261.91 2313.11 1259.49 2312.75 1257.1 2312.75C1250.21 2312.75 1245.42 2314.43 1242.74 2317.78C1240.16 2321.13 1238.86 2325.25 1238.86 2330.13C1238.86 2333.96 1239.58 2337.31 1241.02 2340.19C1241.88 2341.63 1243.39 2342.97 1245.54 2344.21C1247.7 2345.46 1250.11 2346.08 1252.79 2346.08C1257.39 2346.08 1263.66 2341.24 1271.61 2331.57C1272.57 2330.42 1273.05 2328.65 1273.05 2326.25C1273.05 2322.61 1271.85 2319.41 1269.46 2316.63C1268.5 2315.48 1266.8 2314.55 1264.36 2313.83H1264.35Z" fill="white"/>
<path d="M1888.86 2403.1C1888.86 2402.53 1888.66 2401.95 1888.28 2401.38C1886.62 2398.8 1883.85 2397.5 1879.96 2397.5C1876.75 2397.5 1874.36 2395.63 1872.8 2391.9C1872.31 2390.46 1870.8 2388.5 1868.27 2386.01C1862.52 2380.36 1856.44 2377.54 1850.02 2377.54C1847.68 2377.54 1845.49 2377.83 1843.45 2378.4C1826.02 2383.38 1810.06 2391.14 1795.55 2401.67C1792.87 2403.63 1790.58 2405.34 1788.66 2406.82C1788.83 2406.16 1788.94 2405.5 1788.94 2404.83C1788.94 2403.11 1787.22 2401.41 1783.77 2399.73C1780.32 2398.06 1777.26 2397.22 1774.58 2397.22C1774.1 2397.22 1773.05 2397.7 1771.42 2398.66C1766.54 2401.63 1760.33 2404.53 1752.82 2407.35C1745.3 2410.18 1738.33 2412.21 1731.92 2413.45C1728.09 2414.22 1725.65 2414.6 1724.6 2414.6C1723.83 2414.6 1723.45 2414.31 1723.45 2413.74C1723.45 2413.26 1724.24 2410.8 1725.82 2406.34C1727.4 2401.89 1728.86 2398.27 1730.2 2395.5C1731.73 2392.25 1734.96 2386.05 1739.9 2376.9C1744.83 2367.76 1748.71 2359.78 1751.53 2352.98C1754.35 2346.18 1756.34 2339.33 1757.49 2332.44C1757.68 2331.29 1757.78 2330.24 1757.78 2329.28C1757.78 2328.61 1756.92 2327.94 1755.2 2327.27C1751.08 2325.64 1747.35 2324.83 1744 2324.83C1743.23 2324.83 1742.11 2325.07 1740.62 2325.55C1739.13 2326.03 1737.53 2326.27 1735.81 2326.27C1735.14 2326.27 1734.61 2326.46 1734.23 2326.85C1733.85 2327.23 1733.27 2328.34 1732.51 2330.15C1729.54 2336.57 1726.62 2343.32 1723.75 2350.4C1720.88 2357.49 1717.72 2365.58 1714.27 2374.68C1710.82 2383.78 1708.57 2389.72 1707.52 2392.49C1704.94 2399.39 1703.35 2403.98 1702.78 2406.28C1702.21 2409.06 1700.58 2410.45 1697.9 2410.45C1696.18 2410.45 1693.09 2409.66 1688.64 2408.08C1684.19 2406.5 1680.86 2405.71 1678.66 2405.71C1676.84 2405.71 1674.88 2406.24 1672.77 2407.29C1672.68 2407.33 1672.61 2407.37 1672.53 2407.42C1672.73 2405.82 1672.86 2404.21 1672.86 2402.55C1672.86 2393.84 1670.99 2387.47 1667.26 2383.45C1663.81 2379.81 1660.03 2377.13 1655.91 2375.41C1651.79 2373.69 1645.95 2372.83 1638.39 2372.83C1634.94 2372.83 1630.68 2374.43 1625.61 2377.64C1620.53 2380.85 1616.08 2385.52 1612.25 2391.65C1608.99 2396.82 1606.41 2402.98 1604.49 2410.11C1602.57 2417.25 1601.62 2423.06 1601.62 2427.56C1601.62 2431.1 1602.7 2441.35 1604.85 2458.3C1607.01 2475.25 1609.04 2488.13 1610.95 2496.94C1612 2502.3 1612.53 2505.37 1612.53 2506.13C1612.53 2506.7 1612.24 2507.23 1611.67 2507.71C1611.1 2508.19 1610.38 2508.43 1609.51 2508.43C1607.88 2508.43 1605.92 2507.38 1603.62 2505.27C1600.27 2502.21 1596.58 2497.15 1592.56 2490.12C1588.54 2483.08 1585.86 2478.7 1584.52 2476.98C1583.46 2475.51 1582.29 2474.51 1581.02 2473.91C1582.87 2472.08 1584.52 2470.54 1585.9 2469.37C1586.86 2468.6 1587.34 2467.21 1587.34 2465.2C1587.34 2465.11 1587.39 2464.68 1587.48 2463.91C1587.57 2463.14 1587.62 2462.28 1587.62 2461.32C1587.62 2459.98 1586.88 2458.66 1585.39 2457.37C1583.9 2456.08 1582.68 2455.43 1581.73 2455.43C1580.2 2455.43 1578.23 2456.15 1575.84 2457.58C1570.86 2460.74 1563.08 2466.85 1552.5 2475.9C1541.92 2484.95 1532.94 2491.48 1525.57 2495.51C1519.34 2498.86 1514.68 2501.06 1511.56 2502.12C1508.45 2503.17 1505.55 2503.7 1502.87 2503.7C1499.8 2503.7 1496.79 2502.93 1493.82 2501.4C1492.38 2500.63 1490.85 2498.93 1489.22 2496.3C1487.59 2493.67 1486.78 2491.25 1486.78 2489.05C1486.78 2488.19 1487.35 2487.43 1488.5 2486.75C1494.44 2483.5 1500.4 2479.55 1506.38 2474.9C1512.36 2470.26 1518.52 2464.8 1524.84 2458.52C1531.16 2452.25 1536.43 2446.84 1540.64 2442.29C1544.85 2437.74 1550.21 2431.73 1556.73 2424.26C1560.85 2419.57 1564.01 2414.97 1566.21 2410.47C1570.71 2401.66 1572.96 2394.62 1572.96 2389.35C1572.96 2384.08 1571.93 2379.92 1569.87 2376.85C1567.81 2373.79 1565.68 2371.87 1563.48 2371.1C1557.06 2368.9 1551.08 2367.8 1545.52 2367.8C1539.01 2367.8 1532.9 2369.19 1527.21 2371.97C1521.51 2374.75 1517.13 2377.76 1514.07 2381.02C1501.33 2394.62 1490.68 2407.84 1482.11 2420.67C1473.54 2433.5 1467.34 2446.86 1463.51 2460.75C1462.55 2464.2 1462.07 2467.45 1462.07 2470.52C1462.07 2473.59 1462.4 2477.32 1463.08 2482.01C1463.75 2486.7 1464.56 2490.44 1465.52 2493.21C1468.87 2503.07 1473.8 2509.83 1480.31 2513.46C1484.91 2516.14 1491.18 2518.87 1499.13 2521.65C1503.06 2523.09 1506.74 2523.81 1510.19 2523.81C1513.64 2523.81 1517.08 2522.8 1520.82 2520.79C1531.16 2515.04 1540.19 2509.42 1547.9 2503.91C1555.61 2498.41 1561.23 2493.93 1564.78 2490.48C1565.02 2490.24 1565.28 2489.99 1565.52 2489.75C1576.93 2508.23 1590.92 2520.83 1607.5 2527.54C1609.41 2528.31 1611.86 2528.69 1614.82 2528.69C1617.31 2528.69 1619.75 2528.12 1622.15 2526.97C1624.54 2525.82 1626.43 2524.65 1627.82 2523.45C1629.21 2522.25 1631.05 2520.51 1633.35 2518.21C1634.98 2516.58 1635.79 2514.81 1635.79 2512.9C1635.79 2508.4 1634.38 2497.53 1631.55 2480.29C1628.72 2463.05 1626.98 2451.56 1626.31 2445.82C1624.97 2436.82 1624.3 2430.55 1624.3 2427C1624.3 2424.61 1624.49 2422.07 1624.87 2419.39C1625.54 2415.27 1627.24 2410.73 1629.97 2405.74C1632.7 2400.76 1635.33 2396.74 1637.87 2393.68C1640.41 2390.62 1642.06 2389.08 1642.83 2389.08C1643.98 2389.08 1645.2 2389.49 1646.49 2390.3C1647.78 2391.12 1648.72 2392.05 1649.29 2393.1C1650.63 2395.5 1651.3 2398.18 1651.3 2401.14C1651.3 2404.4 1649.62 2408.9 1646.27 2414.64C1645.7 2415.5 1645.41 2416.27 1645.41 2416.94C1645.41 2420.96 1646.89 2424.12 1649.86 2426.42C1650.91 2427.28 1652.49 2428.12 1654.6 2428.93C1656.7 2429.74 1658.57 2430.15 1660.2 2430.15C1660.87 2430.15 1661.42 2429.98 1661.85 2429.65C1662.28 2429.32 1663.07 2428.43 1664.22 2426.99C1667.23 2423.12 1669.43 2419.04 1670.87 2414.75C1672.46 2416.09 1674.17 2417.98 1675.98 2420.45C1677.85 2422.99 1679.86 2425.36 1682.01 2427.56C1684.16 2429.76 1686.77 2431.63 1689.84 2433.16C1690.8 2433.64 1691.28 2434.21 1691.28 2434.88C1691.28 2435.07 1691.09 2435.74 1690.71 2436.89C1687.07 2445.6 1682.86 2458.41 1678.07 2475.31C1673.28 2492.21 1670.17 2502.77 1668.73 2506.98C1667.96 2509.28 1667.58 2512.2 1667.58 2515.74C1667.58 2518.8 1668.63 2521.15 1670.74 2522.78C1673.71 2524.98 1677.25 2526.08 1681.37 2526.08C1683.19 2526.08 1684.67 2525.79 1685.82 2525.22C1687.64 2524.36 1689.27 2522.51 1690.7 2519.69C1692.14 2516.87 1692.95 2514.59 1693.14 2512.87C1693.81 2507.32 1696.13 2498.27 1700.11 2485.72C1704.08 2473.18 1706.26 2465.75 1706.65 2463.46C1706.84 2462.22 1707.37 2460.56 1708.23 2458.51C1709.09 2456.45 1709.67 2454.94 1709.95 2453.98C1711.67 2447.47 1713.3 2442.78 1714.83 2439.9C1716.07 2437.8 1717.94 2436.31 1720.43 2435.45C1720.52 2435.45 1726.73 2433.8 1739.03 2430.5C1751.33 2427.2 1760.36 2424.45 1766.11 2422.24C1767.83 2421.57 1769.8 2420.66 1772 2419.51C1773.38 2418.79 1774.88 2418.07 1776.45 2417.35C1772.71 2420.83 1768.93 2424.79 1765.11 2429.27C1760.88 2434.25 1756.66 2439.76 1752.48 2445.79C1740.51 2463.41 1734.52 2477.92 1734.52 2489.31C1734.52 2497.45 1736.71 2503.24 1741.09 2506.69C1747.9 2512.15 1752.67 2515.72 1755.4 2517.39C1758.12 2519.07 1760.37 2519.9 1762.12 2519.9C1763 2519.9 1764.6 2519.52 1766.94 2518.75C1773.17 2516.65 1778.86 2514.08 1784.02 2511.07C1789.18 2508.05 1795.31 2503.24 1802.42 2496.64L1818.63 2481.99C1822.23 2478.45 1824.62 2476.67 1825.79 2476.67C1826.37 2476.67 1826.71 2476.74 1826.81 2476.89C1826.91 2477.03 1826.96 2477.44 1826.96 2478.11C1826.96 2478.21 1826.86 2478.9 1826.67 2480.19C1826.47 2481.48 1826.28 2483.28 1826.09 2485.58C1825.89 2487.88 1825.8 2490.32 1825.8 2492.9C1825.8 2502.48 1827.5 2510.9 1830.91 2518.18C1831.69 2520 1833.39 2521.43 1836.02 2522.49C1838.65 2523.54 1841.23 2524.07 1843.76 2524.07C1844.44 2524.07 1845.46 2523.88 1846.83 2523.49C1848.19 2523.11 1849.07 2522.87 1849.46 2522.77C1851.02 2522.58 1852.31 2522.17 1853.33 2521.55C1854.35 2520.93 1855.01 2520.38 1855.3 2519.9C1855.59 2519.42 1855.74 2519.04 1855.74 2518.75C1855.74 2518.37 1855.54 2517.79 1855.16 2517.03C1850.97 2510.81 1848.88 2503.43 1848.88 2494.91C1848.88 2488.4 1850.24 2479.68 1852.97 2468.77C1854.72 2461.78 1857.72 2454.19 1861.95 2446C1866.18 2437.81 1870.13 2431.06 1873.78 2425.75C1877.43 2420.44 1882.08 2413.95 1887.72 2406.29C1888.5 2405.14 1888.89 2404.09 1888.89 2403.13L1888.86 2403.1ZM1534.3 2392.18C1534.97 2391.6 1535.54 2391.15 1536.02 2390.82C1536.5 2390.48 1536.86 2390.24 1537.1 2390.1C1537.34 2389.96 1537.75 2389.74 1538.32 2389.45C1538.89 2389.16 1539.52 2388.83 1540.19 2388.44C1542.97 2386.62 1545.02 2385.71 1546.37 2385.71C1547.61 2385.71 1548.24 2386.91 1548.24 2389.3C1548.24 2392.84 1546.47 2397.34 1542.93 2402.8C1541.88 2404.43 1540.85 2406.37 1539.84 2408.62C1538.83 2410.87 1537.52 2412.95 1535.89 2414.87C1519.51 2434.6 1504.48 2449.68 1490.79 2460.12C1489.93 2460.69 1489.26 2460.98 1488.78 2460.98C1488.4 2460.98 1488.21 2460.5 1488.21 2459.54C1493.76 2437.23 1509.13 2414.77 1534.32 2392.17L1534.3 2392.18ZM1858.92 2405.97C1855.12 2409.7 1852.25 2413.44 1850.31 2417.17C1845.73 2425.6 1839.7 2433.62 1832.2 2441.23C1824.7 2448.84 1814.72 2457.75 1802.26 2467.95C1789.8 2478.15 1780.99 2485.64 1775.83 2490.43C1773.3 2492.83 1770.55 2494.81 1767.58 2496.39C1764.61 2497.97 1762.49 2498.76 1761.23 2498.76C1756.85 2498.76 1754.66 2496.08 1754.66 2490.72C1754.66 2486.51 1756.8 2480.55 1761.09 2472.84C1765.37 2465.13 1770.68 2457.5 1777.01 2449.93C1793.36 2430.59 1815.8 2413.5 1844.33 2398.65C1848.13 2396.73 1851.24 2395.78 1853.68 2395.78C1855.92 2395.78 1857.62 2396.43 1858.79 2397.72C1859.96 2399.01 1860.54 2400.33 1860.54 2401.67C1860.54 2403.49 1860 2404.93 1858.93 2405.98L1858.92 2405.97Z" fill="white"/>
<path d="M1031.18 2391.61C1031.18 2390.65 1030.7 2389.6 1029.74 2388.45C1028.78 2387.3 1027.78 2386.49 1026.72 2386.01C1023.18 2384.67 1019.54 2384 1015.8 2384C1014.17 2384 1011.92 2384.48 1009.05 2385.44C1007.23 2386.01 1004.5 2388.26 1000.86 2392.19C977.213 2417.76 954.943 2445.05 934.073 2474.06C933.023 2475.59 932.303 2476.36 931.913 2476.36C931.523 2476.36 931.343 2476.17 931.343 2475.78C931.343 2475.69 931.363 2475.59 931.413 2475.49C931.463 2475.39 931.533 2475.23 931.633 2474.99C931.723 2474.75 931.873 2474.44 932.063 2474.06C932.253 2473.68 932.543 2473.1 932.923 2472.34C933.303 2471.57 933.693 2470.76 934.073 2469.9C937.133 2463.39 944.003 2448.12 954.683 2424.08C965.363 2400.05 974.553 2380.51 982.263 2365.47C989.973 2350.44 997.803 2337.46 1005.75 2326.54C1008.81 2322.04 1010.68 2319.41 1011.35 2318.64C1012.59 2317.01 1014.34 2314.96 1016.59 2312.46C1018.84 2309.97 1020.42 2308.13 1021.33 2306.93C1022.24 2305.73 1023.13 2304.23 1023.99 2302.4C1024.85 2300.58 1025.28 2298.76 1025.28 2296.94C1025.28 2293.78 1024.37 2291.29 1022.55 2289.47C1019.68 2286.6 1016.95 2285.16 1014.36 2285.16C1013.98 2285.16 1013.11 2285.07 1011.78 2284.87C1010.44 2284.68 1009.24 2284.58 1008.19 2284.58C1004.36 2284.58 1001.82 2285.92 1000.58 2288.6C995.603 2298.65 988.133 2312.66 978.173 2330.61C968.213 2348.57 961.273 2361.42 957.343 2369.18C948.633 2386.51 942.423 2398.94 938.743 2406.45C935.053 2413.97 930.193 2424.29 924.163 2437.4C918.133 2450.52 913.413 2461.99 910.013 2471.8C906.613 2481.62 903.813 2491.17 901.613 2500.45C901.233 2502.08 900.703 2503.52 900.033 2504.76C899.363 2506.01 899.023 2507.2 899.023 2508.35C899.023 2509.79 899.403 2510.89 900.173 2511.65C902.273 2513.76 905.103 2515.65 908.643 2517.32C912.183 2519 914.483 2519.83 915.543 2519.83C918.703 2519.83 922.433 2518.54 926.743 2515.95C927.793 2515.38 928.843 2514.42 929.903 2513.08C935.363 2506.67 944.573 2494.15 957.553 2475.52C970.523 2456.9 980.513 2443.61 987.503 2435.66C989.323 2433.56 990.613 2432.5 991.383 2432.5C991.763 2432.5 991.953 2432.69 991.953 2433.08C991.953 2433.56 991.573 2434.71 990.803 2436.53C986.683 2446.39 983.043 2456.5 979.883 2466.84C976.153 2479.29 974.283 2490.3 974.283 2499.88C974.283 2514.53 979.593 2523.82 990.223 2527.75C994.153 2529.19 996.973 2529.91 998.693 2529.91C999.843 2529.91 1000.96 2529.79 1002.07 2529.55C1003.17 2529.31 1004.41 2528.95 1005.8 2528.47C1007.19 2527.99 1008.26 2527.66 1009.03 2527.46C1012 2526.6 1013.86 2525.26 1014.63 2523.44C1015.59 2521.05 1016.07 2519.76 1016.07 2519.56C1016.07 2518.41 1015.4 2517.64 1014.06 2517.26C1009.27 2516.11 1006.83 2515.49 1006.73 2515.39C1004.15 2514.05 1002.25 2512.11 1001.06 2509.57C999.863 2507.04 999.263 2502.51 999.263 2496C999.263 2478.48 1004.38 2457.5 1014.63 2433.09C1015.11 2431.94 1015.75 2430.19 1016.57 2427.85C1017.38 2425.51 1018.22 2423.32 1019.08 2421.31C1019.94 2419.3 1021 2417.24 1022.24 2415.13C1024.54 2411.3 1026.17 2408.45 1027.12 2406.58C1028.08 2404.71 1028.99 2402.41 1029.85 2399.68C1030.71 2396.95 1031.14 2394.25 1031.14 2391.56L1031.18 2391.61Z" fill="white"/>
<path d="M935.893 2353.98C936.663 2353.98 937.373 2354.05 938.053 2354.2C938.723 2354.34 939.293 2354.54 939.773 2354.77C940.253 2355.01 941.043 2355.37 942.143 2355.85C943.243 2356.33 944.323 2356.76 945.373 2357.14C946.903 2357.72 948.123 2358.5 949.033 2359.51C949.943 2360.52 950.783 2361.02 951.543 2361.02C952.983 2361.02 954.273 2360.81 955.423 2360.37C956.573 2359.94 957.603 2359.44 958.513 2358.86C959.423 2358.29 960.023 2357.95 960.312 2357.85C962.902 2357.09 964.193 2354.12 964.193 2348.95C964.193 2346.94 960.913 2343.99 954.353 2340.11C947.793 2336.23 942.023 2334.29 937.043 2334.29C926.793 2334.29 912.243 2335.85 893.373 2338.96C874.503 2342.07 860.433 2343.63 851.143 2343.63C845.393 2343.63 840.873 2343.47 837.573 2343.13C834.273 2342.8 832.043 2342.46 830.893 2342.12C829.743 2341.79 828.973 2341.62 828.593 2341.62C827.253 2341.62 825.813 2342.55 824.283 2344.42C822.753 2346.29 821.983 2348.8 821.983 2351.96C821.983 2357.13 822.223 2359.96 822.703 2360.43C824.143 2361.87 826.433 2363.01 829.593 2363.88C832.753 2364.74 835.913 2365.17 839.073 2365.17C839.553 2365.17 846.733 2364.69 860.613 2363.73C861.763 2363.73 862.333 2364.11 862.333 2364.88C843.563 2403.28 827.953 2448.19 815.503 2499.61C814.543 2504.4 814.062 2508.52 814.062 2511.96C814.062 2512.92 814.513 2514.21 815.423 2515.84C816.333 2517.47 817.172 2518.52 817.932 2519C824.822 2522.73 829.803 2524.6 832.873 2524.6C835.943 2524.6 838.163 2523.79 839.263 2522.16C840.363 2520.53 840.913 2518.19 840.913 2515.12C840.913 2514.35 840.863 2513.18 840.773 2511.6C840.673 2510.02 840.633 2508.85 840.633 2508.08C840.633 2506.45 841.113 2503 842.073 2497.74C850.783 2451.68 867.933 2407.01 893.493 2363.72C893.873 2362.95 894.062 2362.33 894.062 2361.85C894.062 2360.89 893.393 2359.75 892.053 2358.4C908.043 2355.43 922.653 2353.95 935.863 2353.95L935.893 2353.98Z" fill="white"/>
<path d="M1972.42 2515.14C1972.42 2509.59 1973.05 2502.36 1974.3 2493.45C1977.49 2472.86 1984.69 2450.69 1995.9 2426.94C1997.06 2424.36 1997.64 2421.48 1997.64 2418.32C1997.64 2416.02 1995.66 2414.3 1991.7 2413.15C1991.22 2413.05 1990.13 2412.53 1988.44 2411.57C1986.75 2410.61 1985.47 2410.13 1984.6 2410.13C1982.18 2410.13 1979.91 2410.7 1977.79 2411.85C1976.05 2412.81 1974.91 2413.62 1974.38 2414.29C1973.85 2414.96 1973.2 2416.3 1972.42 2418.31C1964.01 2439.76 1949.27 2461.74 1928.2 2484.24C1927.72 2484.72 1926.05 2486.75 1923.2 2490.35C1920.35 2493.94 1916.79 2497.6 1912.54 2501.34C1911.67 2502.11 1910.51 2502.78 1909.06 2503.35C1907.61 2503.93 1906.6 2504.21 1906.02 2504.21C1905.05 2504.21 1904.11 2503.73 1903.19 2502.77C1902.27 2501.81 1901.81 2500.95 1901.81 2500.19C1901.81 2498.27 1902 2496.02 1902.39 2493.44C1903.45 2485.21 1907.05 2471.87 1913.19 2453.44C1919.33 2435.01 1923.17 2422.82 1924.72 2416.88C1926.46 2410.18 1929.31 2405.58 1933.27 2403.09C1937.23 2400.6 1939.21 2397.78 1939.21 2394.62C1939.21 2393.66 1939.02 2392.73 1938.63 2391.82C1938.24 2390.91 1937.74 2390 1937.11 2389.09C1936.48 2388.18 1936.07 2387.54 1935.88 2387.15C1935.2 2385.62 1933.83 2384.47 1931.75 2383.7C1929.67 2382.94 1927.71 2382.55 1925.88 2382.55C1920.37 2382.55 1916.12 2385.09 1913.12 2390.16C1909.73 2395.91 1906.86 2401.8 1904.49 2407.83C1902.12 2413.86 1899.78 2420.85 1897.46 2428.8C1895.14 2436.75 1893.4 2442.3 1892.24 2445.46C1891.27 2448.24 1890.38 2451.47 1889.56 2455.15C1888.74 2458.84 1887.99 2461.78 1887.31 2463.99C1887.31 2464.09 1886.9 2465.52 1886.08 2468.3C1885.26 2471.08 1884.77 2472.75 1884.63 2473.33C1884.48 2473.9 1884.07 2475.41 1883.4 2477.86C1882.72 2480.3 1882.29 2482.07 1882.1 2483.17C1881.91 2484.27 1881.64 2485.81 1881.3 2487.77C1880.96 2489.74 1880.72 2491.48 1880.58 2493.01C1880.43 2494.54 1880.36 2496.03 1880.36 2497.46C1880.36 2500.43 1880.89 2504.64 1881.96 2510.1C1882.54 2512.97 1885.49 2516.04 1890.8 2519.29C1893.02 2520.63 1895.56 2521.75 1898.41 2522.67C1901.26 2523.58 1903.51 2524.18 1905.15 2524.46C1906.79 2524.75 1907.95 2524.89 1908.63 2524.89C1909.69 2524.89 1911 2524.51 1912.54 2523.74C1922.49 2518.76 1933.56 2509.23 1945.74 2495.16C1947.67 2492.77 1949.07 2491.57 1949.94 2491.57C1950.71 2491.57 1951.1 2492.19 1951.1 2493.44C1951.1 2494.01 1950.95 2496.79 1950.67 2501.77C1950.38 2506.75 1950.24 2510.63 1950.24 2513.41C1950.24 2520.31 1951.2 2526.19 1953.14 2531.08C1953.53 2532.13 1953.91 2532.87 1954.3 2533.31C1954.69 2533.74 1955.03 2534.03 1955.31 2534.17C1955.6 2534.31 1956.25 2534.58 1957.27 2534.96C1958.28 2535.34 1959.37 2535.92 1960.53 2536.69C1965.26 2539.56 1969.03 2541 1971.84 2541C1973.77 2541 1975.17 2540.71 1976.04 2540.14C1977.2 2539.28 1977.78 2537.5 1977.78 2534.83C1977.78 2532.72 1976.89 2529.54 1975.1 2525.28C1973.31 2521.02 1972.42 2517.64 1972.42 2515.15V2515.14Z" fill="white"/>
<path d="M1180.19 2403.1C1180.19 2402.53 1180 2401.95 1179.62 2401.38C1177.99 2398.8 1175.26 2397.5 1171.43 2397.5C1168.27 2397.5 1165.92 2395.63 1164.39 2391.9C1163.91 2390.46 1162.43 2388.5 1159.94 2386.01C1154.29 2380.36 1148.3 2377.54 1141.98 2377.54C1139.68 2377.54 1137.53 2377.83 1135.52 2378.4C1118.38 2383.38 1102.67 2391.14 1088.41 2401.67C1085.06 2404.16 1082.31 2406.27 1080.15 2407.99C1077.99 2409.71 1074.88 2412.44 1070.81 2416.18C1066.74 2419.91 1062.62 2424.27 1058.46 2429.25C1054.29 2434.23 1050.15 2439.74 1046.04 2445.77C1034.26 2463.39 1028.37 2477.9 1028.37 2489.29C1028.37 2497.43 1030.52 2503.22 1034.83 2506.67C1041.53 2512.13 1046.23 2515.7 1048.91 2517.37C1051.59 2519.05 1053.79 2519.88 1055.52 2519.88C1056.38 2519.88 1057.96 2519.5 1060.26 2518.73C1066.39 2516.63 1071.99 2514.06 1077.07 2511.05C1082.14 2508.03 1088.18 2503.22 1095.17 2496.62L1111.11 2481.97C1114.65 2478.43 1117 2476.65 1118.15 2476.65C1118.72 2476.65 1119.06 2476.72 1119.16 2476.87C1119.25 2477.01 1119.3 2477.42 1119.3 2478.09C1119.3 2478.19 1119.2 2478.88 1119.01 2480.17C1118.82 2481.46 1118.63 2483.26 1118.44 2485.56C1118.25 2487.86 1118.15 2490.3 1118.15 2492.88C1118.15 2502.46 1119.82 2510.88 1123.18 2518.16C1123.94 2519.98 1125.62 2521.41 1128.21 2522.47C1130.8 2523.52 1133.33 2524.05 1135.82 2524.05C1136.49 2524.05 1137.49 2523.86 1138.84 2523.47C1140.18 2523.09 1141.04 2522.85 1141.43 2522.75C1142.96 2522.56 1144.23 2522.15 1145.24 2521.53C1146.25 2520.91 1146.89 2520.36 1147.18 2519.88C1147.47 2519.4 1147.61 2519.02 1147.61 2518.73C1147.61 2518.35 1147.42 2517.77 1147.04 2517.01C1142.92 2510.79 1140.86 2503.41 1140.86 2494.89C1140.86 2488.38 1142.2 2479.66 1144.88 2468.75C1146.6 2461.76 1149.55 2454.17 1153.71 2445.98C1157.88 2437.79 1161.75 2431.04 1165.35 2425.73C1168.94 2420.42 1173.51 2413.93 1179.07 2406.27C1179.84 2405.12 1180.22 2404.07 1180.22 2403.11L1180.19 2403.1ZM1150.74 2405.97C1147.01 2409.7 1144.18 2413.44 1142.27 2417.17C1137.77 2425.6 1131.83 2433.62 1124.46 2441.23C1117.08 2448.84 1107.27 2457.75 1095.01 2467.95C1082.75 2478.15 1074.09 2485.64 1069.01 2490.43C1066.52 2492.83 1063.81 2494.81 1060.89 2496.39C1057.97 2497.97 1055.88 2498.76 1054.64 2498.76C1050.33 2498.76 1048.18 2496.08 1048.18 2490.72C1048.18 2486.51 1050.29 2480.55 1054.5 2472.84C1058.71 2465.13 1063.93 2457.5 1070.16 2449.93C1086.25 2430.59 1108.32 2413.5 1136.38 2398.65C1140.11 2396.73 1143.18 2395.78 1145.57 2395.78C1147.77 2395.78 1149.45 2396.43 1150.6 2397.72C1151.75 2399.01 1152.32 2400.33 1152.32 2401.67C1152.32 2403.49 1151.79 2404.93 1150.74 2405.98V2405.97Z" fill="white"/>
<path d="M2308.15 2393.46C2304.68 2395.37 2301.27 2397.65 2298.03 2400.36C2284.56 2411.67 2272.81 2431.58 2272.81 2431.58C2272.81 2431.58 2271.15 2419.52 2269.09 2407.33C2267.03 2395.15 2261.59 2387.76 2245.72 2386.7C2236.96 2386.12 2234.06 2393.83 2239.28 2401.36C2244.5 2408.89 2247.43 2416.94 2247.43 2431.57C2247.43 2446.2 2242.03 2474.98 2236.68 2491.32C2231.33 2507.66 2231.32 2509.37 2242.05 2511.8C2252.79 2514.24 2259.4 2513.28 2263.2 2498.74C2267 2484.2 2278.01 2459.59 2298.23 2432.37C2303.76 2424.92 2308.33 2419.59 2312.06 2415.76C2316.5 2411.21 2324.13 2415.15 2322.98 2421.4C2321.1 2431.56 2318.32 2446.95 2314.64 2467.99C2309.94 2494.92 2307.66 2510.23 2306.62 2517.83C2306.11 2521.56 2308.34 2525.1 2311.94 2526.22C2314.88 2527.14 2318.75 2528.17 2323.26 2528.98C2327.93 2529.81 2332.11 2525.91 2331.5 2521.21C2330.66 2514.73 2330.74 2504.13 2334.26 2487.41C2338.12 2469.09 2341.86 2440.63 2344.5 2418.13C2346.84 2398.22 2325.7 2383.77 2308.15 2393.44V2393.46Z" fill="white"/>
<path d="M2463.57 2399.73C2460.04 2398.06 2456.9 2397.22 2454.16 2397.22C2453.67 2397.22 2452.59 2397.7 2450.93 2398.66C2445.93 2401.63 2439.58 2404.53 2431.89 2407.35C2424.19 2410.18 2417.06 2412.21 2410.49 2413.45C2406.57 2414.22 2404.07 2414.6 2402.99 2414.6C2402.2 2414.6 2401.81 2414.31 2401.81 2413.74C2401.81 2413.26 2402.62 2410.8 2404.24 2406.34C2405.86 2401.89 2407.35 2398.27 2408.73 2395.5C2410.3 2392.25 2413.61 2386.05 2418.66 2376.9C2423.71 2367.76 2427.68 2359.78 2430.57 2352.98C2433.46 2346.18 2435.5 2339.33 2436.67 2332.44C2436.87 2331.29 2436.96 2330.24 2436.96 2329.28C2436.96 2328.61 2436.08 2327.94 2434.31 2327.27C2430.09 2325.64 2426.27 2324.83 2422.84 2324.83C2422.05 2324.83 2420.9 2325.07 2419.38 2325.55C2417.86 2326.03 2416.22 2326.27 2414.45 2326.27C2413.76 2326.27 2413.22 2326.46 2412.83 2326.85C2412.44 2327.23 2411.85 2328.34 2411.07 2330.15C2408.03 2336.57 2405.04 2343.32 2402.1 2350.4C2399.16 2357.49 2395.92 2365.58 2392.39 2374.68C2388.86 2383.78 2386.56 2389.72 2385.48 2392.49C2382.83 2399.39 2381.22 2403.98 2380.63 2406.28C2380.04 2409.06 2378.37 2410.45 2375.63 2410.45C2373.87 2410.45 2370.7 2409.66 2366.15 2408.08C2361.59 2406.5 2358.18 2405.71 2355.93 2405.71C2354.07 2405.71 2352.06 2406.24 2349.9 2407.29C2348.53 2407.96 2347.6 2408.51 2347.11 2408.94C2346.62 2409.37 2346.37 2410.07 2346.37 2411.02C2346.37 2412.65 2346.86 2413.84 2347.84 2414.61C2349.51 2415.95 2351.3 2417.89 2353.21 2420.43C2355.12 2422.97 2357.18 2425.34 2359.39 2427.54C2361.6 2429.74 2364.27 2431.61 2367.4 2433.14C2368.38 2433.62 2368.87 2434.19 2368.87 2434.86C2368.87 2435.05 2368.67 2435.72 2368.28 2436.87C2364.55 2445.58 2360.24 2458.39 2355.34 2475.29C2350.44 2492.19 2347.25 2502.75 2345.78 2506.96C2345 2509.26 2344.6 2512.18 2344.6 2515.72C2344.6 2518.78 2345.68 2521.13 2347.84 2522.76C2350.88 2524.96 2354.51 2526.06 2358.72 2526.06C2360.58 2526.06 2362.1 2525.77 2363.28 2525.2C2365.14 2524.34 2366.81 2522.49 2368.28 2519.67C2369.75 2516.85 2370.58 2514.57 2370.78 2512.85C2371.47 2507.3 2373.84 2498.25 2377.91 2485.7C2381.98 2473.16 2384.21 2465.73 2384.6 2463.44C2384.8 2462.2 2385.34 2460.54 2386.22 2458.49C2387.1 2456.43 2387.69 2454.92 2387.98 2453.96C2389.74 2447.45 2391.41 2442.76 2392.98 2439.88C2394.25 2437.78 2396.16 2436.29 2398.71 2435.43C2398.81 2435.43 2405.16 2433.78 2417.75 2430.48C2430.35 2427.18 2439.59 2424.43 2445.47 2422.22C2447.23 2421.55 2449.24 2420.64 2451.5 2419.49C2453.75 2418.34 2456.25 2417.19 2459 2416.04C2462.14 2414.8 2464.56 2413.14 2466.28 2411.08C2467.99 2409.02 2468.85 2406.94 2468.85 2404.83C2468.85 2403.11 2467.09 2401.41 2463.56 2399.73H2463.57Z" fill="white"/>
<path d="M2231.1 2397.5C2227.94 2397.5 2225.59 2395.63 2224.06 2391.9C2223.58 2390.46 2222.1 2388.5 2219.61 2386.01C2213.96 2380.36 2207.97 2377.54 2201.65 2377.54C2199.35 2377.54 2197.2 2377.83 2195.19 2378.4C2178.05 2383.38 2162.34 2391.14 2148.08 2401.67C2144.73 2404.16 2141.98 2406.27 2139.82 2407.99C2137.66 2409.71 2134.55 2412.44 2130.48 2416.18C2126.41 2419.91 2122.29 2424.27 2118.13 2429.25C2113.96 2434.23 2109.82 2439.74 2105.71 2445.77C2093.93 2463.39 2088.04 2477.9 2088.04 2489.29C2088.04 2497.43 2090.19 2503.22 2094.5 2506.67C2101.2 2512.13 2105.9 2515.7 2108.58 2517.37C2111.26 2519.05 2113.46 2519.88 2115.19 2519.88C2116.05 2519.88 2117.63 2519.5 2119.93 2518.73C2126.06 2516.63 2131.66 2514.06 2136.74 2511.05C2141.81 2508.03 2147.85 2503.22 2154.84 2496.62L2170.78 2481.97C2174.32 2478.43 2176.67 2476.65 2177.82 2476.65C2178.39 2476.65 2178.73 2476.72 2178.83 2476.87C2178.92 2477.01 2178.97 2477.42 2178.97 2478.09C2178.97 2478.19 2178.87 2478.88 2178.68 2480.17C2178.49 2481.46 2178.3 2483.26 2178.11 2485.56C2177.92 2487.86 2177.82 2490.3 2177.82 2492.88C2177.82 2502.46 2179.49 2510.88 2182.85 2518.16C2183.61 2519.98 2185.29 2521.41 2187.88 2522.47C2190.47 2523.52 2193 2524.05 2195.49 2524.05C2196.16 2524.05 2197.16 2523.86 2198.51 2523.47C2199.85 2523.09 2200.71 2522.85 2201.1 2522.75C2202.63 2522.56 2203.9 2522.15 2204.91 2521.53C2205.92 2520.91 2206.56 2520.36 2206.85 2519.88C2207.14 2519.4 2207.28 2519.02 2207.28 2518.73C2207.28 2518.35 2207.09 2517.77 2206.71 2517.01C2202.59 2510.79 2200.53 2503.41 2200.53 2494.89C2200.53 2488.38 2201.87 2479.66 2204.55 2468.75C2206.27 2461.76 2209.22 2454.17 2213.38 2445.98C2217.55 2437.79 2221.42 2431.04 2225.02 2425.73C2228.61 2420.42 2233.18 2413.93 2238.74 2406.27C2239.51 2405.12 2239.89 2404.07 2239.89 2403.11C2239.89 2402.54 2239.7 2401.96 2239.32 2401.39C2237.69 2398.81 2234.96 2397.51 2231.13 2397.51L2231.1 2397.5ZM2210.42 2405.97C2206.69 2409.7 2203.86 2413.44 2201.95 2417.17C2197.45 2425.6 2191.51 2433.62 2184.14 2441.23C2176.76 2448.84 2166.95 2457.75 2154.69 2467.95C2142.43 2478.15 2133.77 2485.64 2128.69 2490.43C2126.2 2492.83 2123.49 2494.81 2120.57 2496.39C2117.65 2497.97 2115.56 2498.76 2114.32 2498.76C2110.01 2498.76 2107.86 2496.08 2107.86 2490.72C2107.86 2486.51 2109.97 2480.55 2114.18 2472.84C2118.39 2465.13 2123.61 2457.5 2129.84 2449.93C2145.93 2430.59 2168 2413.5 2196.06 2398.65C2199.79 2396.73 2202.86 2395.78 2205.25 2395.78C2207.45 2395.78 2209.13 2396.43 2210.28 2397.72C2211.43 2399.01 2212 2400.33 2212 2401.67C2212 2403.49 2211.47 2404.93 2210.42 2405.98V2405.97Z" fill="white"/>
<path d="M2101.05 2419.62C2102.39 2419.62 2104.54 2420.1 2107.51 2421.06C2110.48 2422.02 2112.73 2422.5 2114.26 2422.5C2116.08 2422.5 2118.26 2421.33 2120.8 2418.98C2123.34 2416.64 2124.61 2413.5 2124.61 2409.57C2124.61 2407.66 2123.89 2405.98 2122.46 2404.54C2117.77 2399.08 2110.63 2396.35 2101.06 2396.35C2099.81 2396.35 2098.62 2396.54 2097.47 2396.93C2086.55 2400.57 2072.95 2408.61 2056.68 2421.06C2054.96 2422.59 2053.66 2423.36 2052.8 2423.36C2052.23 2423.36 2051.94 2422.98 2051.94 2422.21C2051.94 2422.02 2051.96 2421.81 2052.01 2421.56C2052.06 2421.32 2052.2 2420.82 2052.44 2420.05C2052.68 2419.29 2052.89 2418.43 2053.09 2417.47C2054.24 2413.93 2054.81 2410.63 2054.81 2407.56C2054.81 2401.14 2053.37 2395.64 2050.5 2391.04C2050.02 2390.27 2048.78 2389.53 2046.77 2388.81C2044.76 2388.09 2042.75 2387.73 2040.74 2387.73C2037.67 2387.73 2034.99 2388.5 2032.7 2390.03C2030.4 2391.56 2029.25 2393 2029.25 2394.34C2029.34 2395.2 2029.82 2396.4 2030.69 2397.93C2031.55 2399.46 2031.98 2400.51 2031.98 2401.09C2031.98 2401.28 2031.93 2401.57 2031.84 2401.95C2031.74 2402.33 2031.65 2402.86 2031.55 2403.53C2031.45 2404.2 2031.36 2404.92 2031.26 2405.68C2030.11 2411.24 2028.65 2417.27 2026.88 2423.78C2025.11 2430.29 2023.6 2435.51 2022.36 2439.44C2021.11 2443.37 2019.13 2449.4 2016.4 2457.54C2013.67 2465.68 2011.88 2471.04 2011.01 2473.63C2010.05 2476.69 2007.18 2481.7 2002.39 2488.64C1997.6 2495.59 1995.21 2500.92 1995.21 2504.66C1995.5 2508.68 1997.32 2512.37 2000.67 2515.72C2000.76 2515.82 2001.15 2516.29 2001.82 2517.16C2002.49 2518.02 2002.99 2518.6 2003.33 2518.88C2003.66 2519.17 2004.19 2519.6 2004.91 2520.17C2005.63 2520.74 2006.37 2521.15 2007.14 2521.39C2007.9 2521.63 2008.72 2521.8 2009.58 2521.89C2011.69 2521.89 2013.46 2521.03 2014.89 2519.31C2018.14 2517.01 2020.59 2512.32 2022.22 2505.23C2024.71 2494.79 2028.47 2485.05 2033.5 2476C2038.53 2466.95 2044.44 2459.03 2051.24 2452.23C2058.04 2445.43 2065.12 2439.47 2072.5 2434.35C2079.87 2429.23 2087.82 2424.7 2096.34 2420.78C2098.06 2420.01 2099.64 2419.63 2101.08 2419.63L2101.05 2419.62Z" fill="white"/>
<path d="M1632.83 2103.4V2105.22H1686.35V2103.4C1678.38 2102.72 1672.23 2102.26 1664.26 2079.72L1615.3 1939.44H1603.23L1557 2080.4C1552.22 2094.75 1546.52 2102.49 1535.14 2103.4V2105.22H1573.63V2103.4C1566.8 2103.4 1560.42 2102.03 1560.42 2092.01C1560.42 2088.59 1562.01 2082.22 1563.15 2078.8L1576.13 2038.49H1632.83L1647.4 2081.98C1647.4 2082.21 1647.63 2082.89 1647.86 2083.35C1649.45 2088.36 1649.91 2092 1649.91 2093.37C1649.91 2104.07 1639.89 2103.39 1632.83 2103.39V2103.4ZM1577.95 2032.58L1603 1954.93H1603.46L1630.1 2032.58H1577.95Z" fill="white"/>
<path d="M1878.98 2103.4V2105.22H1930.9V2103.4C1923.61 2103.4 1913.36 2099.53 1913.36 2085.41V1961.07C1913.36 1947.18 1922.47 1943.31 1930.9 1943.31V1941.49H1878.98V1943.31C1886.04 1943.31 1896.51 1945.81 1896.51 1961.07V2085.41C1896.51 2099.53 1886.95 2103.4 1878.98 2103.4Z" fill="white"/>
<path d="M1701.59 2103.4H1699.31V2105.22H1772.86C1798.59 2105.22 1811.12 2099.3 1818.63 2094.74C1842.31 2080.39 1857.11 2056.26 1857.11 2026.42C1857.11 2004.1 1848.91 1983.15 1832.97 1967.21C1821.36 1955.6 1799.04 1941.48 1762.38 1941.48H1699.3V1943.3H1701.58C1709.55 1943.3 1716.84 1948.54 1716.84 1961.75V2085.4C1716.84 2092.46 1712.74 2103.39 1701.58 2103.39L1701.59 2103.4ZM1733.7 1949.23C1739.17 1948.32 1748.5 1946.5 1760.8 1946.5C1789.95 1946.5 1809.08 1957.66 1820.92 1973.37C1832.76 1989.08 1837.54 2009.35 1837.54 2027.57C1837.54 2054.44 1828.66 2070.61 1818.87 2081.08C1802.02 2098.84 1784.48 2100.21 1765.13 2100.21C1742.59 2100.21 1733.7 2098.39 1733.7 2079.03V1949.23Z" fill="white"/>
<path d="M1173.76 2030.3C1214.52 2030.3 1230.01 2008.21 1230.01 1986.12C1230.01 1964.03 1212.02 1941.49 1175.58 1941.49H1121.84V1943.31H1124.12C1127.54 1944.22 1139.38 1944.9 1139.38 1961.53V2085.41C1139.38 2099.3 1130.5 2103.17 1121.85 2103.4V2105.22H1174V2103.4C1166.94 2103.17 1156.24 2100.67 1156.24 2085.41V2028.93C1160.57 2029.38 1166.26 2030.3 1173.78 2030.3H1173.76ZM1156.22 1947.18C1159.86 1946.5 1165.1 1945.81 1171.93 1945.81C1199.94 1945.81 1211.1 1965.17 1211.1 1987.48C1211.1 2020.5 1189.47 2025.96 1173.07 2025.96C1164.64 2025.96 1159.86 2025.05 1156.22 2024.37V1947.17V1947.18Z" fill="white"/>
<path d="M1466.59 2054.44L1486.18 2086.78C1486.41 2087.01 1490.05 2092.7 1492.1 2095.66C1495.52 2100.67 1497.34 2102.72 1499.16 2105.22H1528.99V2103.4C1523.98 2102.94 1516.01 2102.72 1500.98 2077.21L1486.18 2052.16C1479.12 2040.32 1471.15 2029.84 1459.08 2023.92V2023.46C1482.99 2019.13 1493.47 2001.37 1493.47 1984.29C1493.47 1968.35 1484.13 1941.48 1445.65 1941.48H1388.95V1943.76H1391.23C1396.92 1943.76 1406.49 1947.18 1406.49 1961.52V2085.4C1406.49 2099.52 1397.38 2103.16 1388.96 2103.39V2105.21H1441.11V2103.39C1434.05 2103.16 1423.35 2100.66 1423.35 2085.4V2025.51C1434.28 2025.51 1449.54 2026.19 1466.62 2054.43L1466.59 2054.44ZM1423.32 1946.73C1425.6 1946.28 1428.33 1945.82 1433.57 1945.82C1466.36 1945.82 1474.56 1969.5 1474.56 1985.67C1474.56 2007.53 1463.17 2021.2 1432.66 2021.2H1423.32V1946.73Z" fill="white"/>
<path d="M1323.14 2103.4V2105.22H1376.66V2103.4C1368.69 2102.72 1362.54 2102.26 1354.57 2079.72L1305.61 1939.44H1293.54L1247.31 2080.4C1242.53 2094.75 1236.83 2102.49 1225.45 2103.4V2105.22H1263.94V2103.4C1257.11 2103.4 1250.73 2102.03 1250.73 2092.01C1250.73 2088.59 1252.32 2082.22 1253.46 2078.8L1266.44 2038.49H1323.14L1337.71 2081.98C1337.71 2082.21 1337.94 2082.89 1338.17 2083.35C1339.76 2088.36 1340.22 2092 1340.22 2093.37C1340.22 2104.07 1330.2 2103.39 1323.14 2103.39V2103.4ZM1268.26 2032.58L1293.31 1954.93H1293.77L1320.41 2032.58H1268.26Z" fill="white"/>
<path d="M1993.29 2103.85C1971.88 2103.85 1955.03 2092.24 1949.57 2067.41H1947.75V2108.4H1949.57C1950.71 2103.62 1950.94 2099.52 1954.58 2099.52C1956.4 2099.52 1958.45 2100.43 1959.13 2100.66C1966.87 2104.53 1977.58 2108.86 1992.83 2108.86C2026.53 2108.86 2041.56 2086.32 2041.56 2066.5C2041.56 2040.77 2019.93 2028.93 2003.53 2019.82C1979.39 2006.61 1965.96 1999.1 1965.96 1977.24C1965.96 1957.88 1978.48 1943.08 1998.07 1943.08C2018.79 1943.08 2029.95 1959.02 2031.77 1972.91H2033.59V1937.84H2031.77C2030.4 1942.85 2027.22 1942.85 2026.76 1942.85C2024.94 1942.85 2022.43 1942.17 2021.98 1941.94C2014.69 1939.66 2007.86 1938.3 1999.89 1938.3C1970.06 1938.3 1950.93 1960.62 1950.93 1983.84C1950.93 2012.08 1972.11 2023.24 1992.6 2034.17C2012.18 2044.65 2026.53 2054.67 2026.53 2074.48C2026.53 2085.87 2020.38 2103.86 1993.28 2103.86L1993.29 2103.85Z" fill="white"/>
<path d="M2060.01 2103.4H2057.73V2105.22H2155.42L2161.11 2079.49H2159.52C2155.42 2091.33 2149.27 2100.21 2130.6 2100.21H2106.23C2092.11 2100.21 2092.11 2089.05 2092.11 2084.04V2025.97H2123.54C2124.22 2025.97 2129.23 2026.2 2131.97 2026.65C2134.25 2026.65 2143.81 2028.02 2146.09 2041.91H2147.68V2004.79H2146.09C2144.5 2020.73 2129.24 2020.96 2122.18 2020.96H2092.12V1946.49H2126.28C2136.07 1946.49 2153.83 1947.86 2153.83 1967.21H2155.42V1941.48H2057.73V1943.3H2060.01C2072.31 1943.3 2075.27 1954.23 2075.27 1961.97V2085.4C2075.27 2099.75 2064.8 2103.39 2060.01 2103.39V2103.4Z" fill="white"/>
<path d="M2819.3 1701.53L2783.92 1641.65C2767.04 1613.34 2747.99 1588.3 2719.14 1574.15V1573.06C2776.3 1562.72 2801.34 1520.26 2801.34 1479.43C2801.34 1441.32 2779.02 1377.09 2687.02 1377.09H2438.8V1381.44C2481.26 1385.25 2481.26 1412.47 2481.26 1424.99V1638.93C2481.26 1696.09 2458.4 1728.21 2432.81 1745.63C2407.22 1763.05 2378.37 1766.32 2365.85 1766.32C2322.3 1766.32 2286.37 1742.91 2269.5 1703.17C2260.25 1681.4 2257.52 1652.54 2257.52 1616.62V1425C2257.52 1413.57 2257.52 1386.35 2299.44 1381.45V1377.1H2176.41V1378.41H2089.6V1382.76C2133.27 1384.4 2134.37 1411.08 2134.37 1457.35L2131.35 1734.73C2082.67 1681.2 2025.47 1603.57 1937.98 1504.23C1918.84 1482.49 1898.24 1459.72 1875.96 1435.92C1855.2 1413.76 1836.99 1394.45 1819.51 1378.42C1781.62 1343.67 1747.08 1324.27 1697.07 1324.27C1623.98 1324.27 1599.74 1380.55 1599.74 1380.55C1599.74 1380.55 1646.2 1373.67 1690.5 1374.75C1690.92 1374.75 1691.34 1374.77 1691.74 1374.77C1728.62 1375.8 1764.01 1389.61 1791.95 1413.62C1797.89 1418.75 1803.75 1423.89 1808.68 1428.55C1816.41 1435.79 1824.31 1443.73 1832.41 1452.24L1831.97 1685.44C1831.97 1752.4 1819.93 1763.84 1787.73 1765.45V1769.83H1885.98V1765.45C1872.34 1764.91 1860.36 1760.56 1853.27 1750.75C1847.82 1743.14 1843.98 1729.52 1843.98 1684.89L1843.45 1464.04C1844.67 1465.38 1845.89 1466.7 1847.13 1468.06C1900.11 1526.38 1963.19 1607.92 2051.25 1699.33C2151.93 1803.82 2180.46 1839.14 2209.62 1839.14C2246.34 1839.14 2254.3 1786.39 2254.3 1754.4H2241.45C2241.45 1765.89 2239.55 1776.75 2237.47 1785.2C2235.06 1795.01 2224.83 1800.83 2215.26 1797.6C2196.58 1791.3 2175.52 1779.6 2154.2 1758.63C2151.6 1756.08 2149 1753.46 2146.38 1750.74V1436.11C2146.38 1391.26 2161.63 1386.21 2186.92 1382.94C2217.24 1389.45 2217.24 1411.68 2217.24 1424.99V1619.87C2217.24 1638.92 2217.24 1678.12 2234.12 1709.69C2253.72 1746.71 2300.53 1778.82 2358.23 1778.82C2401.24 1778.82 2455.67 1760.31 2480.17 1702.61L2481.26 1703.7V1768.48H2676.14V1764.13C2659.26 1763.59 2633.68 1757.6 2633.68 1721.12V1577.95C2659.81 1577.95 2696.28 1579.58 2737.11 1647.08L2783.93 1724.38C2784.47 1724.92 2793.18 1738.53 2798.08 1745.61C2806.24 1757.59 2810.6 1762.49 2814.95 1768.47H2886.26V1764.12C2874.28 1763.03 2855.23 1762.49 2819.3 1701.52V1701.53ZM2209.99 1813.1C2213.45 1814.27 2217.06 1814.86 2220.66 1814.86C2221.88 1814.86 2223.05 1814.79 2224.19 1814.67C2220.35 1819.68 2215.58 1822.74 2209.61 1822.74C2202.26 1822.74 2193.18 1817.76 2180.8 1807.39C2180.68 1807.3 2180.54 1807.2 2180.43 1807.11C2170.11 1799.25 2158.45 1788.69 2146.38 1776.9C2117.85 1749.05 2087.12 1714.32 2066.9 1691.95C2066.85 1691.88 2066.78 1691.83 2066.74 1691.76C2065.55 1690.52 2064.31 1689.26 2063.07 1687.97C2056.63 1681.3 2050.34 1674.68 2044.18 1668.1C2010.5 1632.27 1980.73 1598.27 1953.61 1566.58C1953.61 1566.58 1953.59 1566.58 1953.59 1566.56C1942.89 1554.09 1932.62 1541.96 1922.67 1530.24C1884.13 1484.79 1850.85 1445.54 1819.93 1416.6C1816.79 1413.65 1813.14 1410.35 1809.02 1406.72C1807.01 1404.96 1804.88 1403.12 1802.65 1401.2C1798.11 1397.32 1793.38 1393.64 1788.49 1390.25C1782.22 1385.87 1775.69 1381.92 1768.92 1378.41C1745.28 1366.1 1719 1359.15 1692.18 1358.4L1690.96 1358.35C1687.54 1358.28 1684.22 1358.23 1680.9 1358.23C1665.48 1358.23 1650.29 1359.03 1637.16 1360.06C1650.13 1349.83 1669.43 1340.64 1697.05 1340.64C1735.59 1340.64 1763.65 1353.04 1794.45 1378.41C1815.07 1395.42 1836.9 1418.24 1863.91 1447.1C1940.09 1528.47 1996.96 1598.42 2042.64 1654.61C2081.86 1702.87 2112.85 1740.99 2142.64 1770.31C2143.88 1771.53 2145.12 1772.72 2146.36 1773.87C2166.02 1792.31 2187.36 1805.51 2209.97 1813.12L2209.99 1813.1ZM2593.39 1721.12C2593.39 1750.42 2576.98 1760.84 2559.47 1763.44C2537.98 1759.53 2521.54 1752.42 2521.54 1721.12V1424.44C2521.54 1416.43 2522.03 1388.62 2554.74 1382.52H2556.92C2570.53 1382.52 2593.39 1390.69 2593.39 1424.98V1721.11V1721.12ZM2655.99 1567.61H2633.67V1389.6C2639.11 1388.51 2645.65 1387.42 2658.17 1387.42C2736.56 1387.42 2756.16 1444.03 2756.16 1482.68C2756.16 1534.94 2728.94 1567.6 2656 1567.6L2655.99 1567.61Z" fill="white"/>
<path d="M846.923 1712.26C947.323 1816.78 975.753 1852.07 1004.84 1852.07C1041.44 1852.07 1049.38 1799.34 1049.38 1767.33H1036.58C1036.58 1778.82 1034.68 1789.7 1032.6 1798.15C1030.21 1807.93 1020.01 1813.76 1010.46 1810.53C991.853 1804.23 970.823 1792.53 949.593 1771.56C945.943 1767.96 942.263 1764.21 938.543 1760.33V1434.79C938.543 1392.76 951.893 1385.69 974.353 1382.27C1008.21 1387.76 1008.22 1411.18 1008.22 1424.99V1619.87C1008.22 1638.92 1008.22 1678.12 1025.1 1709.69C1044.7 1746.71 1091.51 1778.82 1149.21 1778.82C1192.22 1778.82 1246.65 1760.31 1271.15 1702.61L1272.24 1703.7V1768.48H1467.12V1764.13C1450.24 1763.59 1424.66 1757.6 1424.66 1721.12V1577.95C1450.79 1577.95 1487.26 1579.58 1528.09 1647.08L1574.91 1724.38C1575.45 1724.92 1584.16 1738.53 1589.06 1745.61C1597.22 1757.59 1601.58 1762.49 1605.93 1768.47H1677.24V1764.12C1665.26 1763.03 1646.21 1762.49 1610.28 1701.52L1574.9 1641.64C1558.02 1613.33 1538.97 1588.29 1510.12 1574.14V1573.05C1567.28 1562.71 1592.32 1520.25 1592.32 1479.42C1592.32 1441.31 1570 1377.08 1478 1377.08H1229.78V1381.43C1272.24 1385.24 1272.24 1412.46 1272.24 1424.98V1638.92C1272.24 1696.08 1249.38 1728.2 1223.79 1745.62C1198.2 1763.04 1169.35 1766.31 1156.83 1766.31C1113.28 1766.31 1077.35 1742.9 1060.48 1703.16C1051.23 1681.39 1048.5 1652.53 1048.5 1616.61V1424.99C1048.5 1413.56 1048.5 1386.34 1090.42 1381.44V1377.09H980.483H881.933V1381.44C925.483 1383.08 926.583 1409.76 926.583 1456.02V1747.43C923.823 1744.39 921.063 1741.3 918.253 1738.09C860.683 1672.73 789.913 1575.06 672.123 1448.85C644.883 1419.64 622.013 1395.42 599.413 1377.07C567.653 1351.3 536.323 1337.17 493.753 1337.17C420.873 1337.17 396.703 1393.45 396.703 1393.45C396.703 1393.45 443.013 1386.59 487.203 1387.65C487.603 1387.65 488.023 1387.67 488.443 1387.67C525.213 1388.72 560.483 1402.51 588.353 1426.52C594.273 1431.65 600.123 1436.82 605.063 1441.45C612.533 1448.47 620.133 1456.1 627.953 1464.31L623.393 1684.09C623.393 1751.05 613.053 1762.49 580.913 1764.1V1768.48H678.903V1764.1C665.303 1763.56 651.683 1759.21 644.613 1749.4C639.163 1741.79 635.343 1728.17 635.343 1683.54L639.903 1477.13C693.453 1535.71 757.153 1618.81 846.923 1712.24V1712.26ZM1424.66 1389.61C1430.1 1388.52 1436.64 1387.43 1449.16 1387.43C1527.55 1387.43 1547.15 1444.04 1547.15 1482.69C1547.15 1534.95 1519.93 1567.61 1446.99 1567.61H1424.67V1389.6L1424.66 1389.61ZM1312.53 1424.45C1312.53 1416.44 1313.02 1388.63 1345.73 1382.53H1347.91C1361.52 1382.53 1384.38 1390.7 1384.38 1424.99V1721.12C1384.38 1750.42 1367.97 1760.84 1350.46 1763.44C1328.97 1759.53 1312.53 1752.42 1312.53 1721.12V1424.44V1424.45ZM628.443 1441.35C624.343 1437.23 620.303 1433.3 616.273 1429.53C611.613 1425.15 605.813 1419.96 599.053 1414.13C568.323 1387.66 529.223 1372.45 488.893 1371.33L487.673 1371.28C484.283 1371.21 480.953 1371.16 477.653 1371.16C462.253 1371.16 447.113 1371.96 434.033 1372.99C446.953 1362.76 466.213 1353.57 493.753 1353.57C524.133 1353.57 548.003 1361.32 571.823 1377.09C598.343 1394.67 624.803 1422.16 660.143 1460.03C736.083 1541.4 792.793 1611.35 838.353 1667.54C841.983 1672.01 845.533 1676.41 849.053 1680.72C849.073 1680.77 849.103 1680.81 849.143 1680.86C883.243 1722.87 911.163 1756.66 938.073 1783.25C958.663 1803.54 981.253 1817.96 1005.21 1826.05C1008.65 1827.22 1012.25 1827.81 1015.86 1827.81C1017.05 1827.81 1018.22 1827.74 1019.37 1827.62C1015.56 1832.63 1010.78 1835.69 1004.84 1835.69C997.523 1835.69 988.463 1830.71 976.103 1820.34C975.983 1820.25 975.843 1820.15 975.733 1820.06C941.193 1793.61 891.223 1736.75 862.533 1704.89C862.483 1704.82 862.413 1704.77 862.373 1704.7C861.183 1703.46 859.943 1702.2 858.723 1700.91C803.443 1643.34 758.413 1590.12 718.703 1543.17C690.103 1509.35 664.413 1478.95 640.423 1453.68C636.373 1449.42 632.393 1445.3 628.443 1441.35Z" fill="white"/>
</svg>
