<svg width="1406" height="1406" viewBox="0 0 1406 1406" fill="none" xmlns="http://www.w3.org/2000/svg">
<path d="M595.553 1035.25C596.163 1035.17 596.783 1035.01 597.393 1034.79C598.003 1034.57 598.823 1034.13 599.853 1033.47C604.023 1030.81 607.493 1027.37 610.253 1023.16C613.013 1018.95 614.393 1014.26 614.393 1009.11C614.393 1007.35 614.103 1006.18 613.533 1005.61C612.343 1004.42 610.503 1003.83 608.013 1003.83C605.723 1003.83 603.083 1004.34 600.093 1005.37C599.273 1005.66 598.723 1006.02 598.433 1006.47C593.523 1014.69 589.373 1024.13 585.973 1034.76C585.973 1035.13 586.113 1035.42 586.403 1035.62C587.263 1036.23 588.343 1036.54 589.653 1036.54C590.673 1036.54 592.083 1036.23 593.893 1035.62C594.383 1035.46 594.933 1035.33 595.553 1035.25Z" fill="#758C6D"/>
<path d="M489.501 1023.71C488.481 1023.71 487.171 1024.12 485.571 1024.94C473.581 1031.28 464.151 1038.59 457.281 1046.85C454.621 1050.08 452.391 1053.35 450.591 1056.64C448.791 1059.93 447.891 1062.48 447.891 1064.28C447.891 1066.57 448.811 1067.72 450.651 1067.72C451.181 1067.72 452.071 1067.38 453.321 1066.71C454.571 1066.04 455.721 1065.19 456.791 1064.16C458.961 1062.11 462.661 1058.91 467.901 1054.55C473.141 1050.19 477.331 1046.39 480.481 1043.13C483.631 1039.88 486.171 1036.45 488.091 1032.85C488.911 1031.25 490.121 1029.66 491.711 1028.06C492.161 1027.61 492.391 1027 492.391 1026.22C492.391 1025.65 492.141 1025.08 491.651 1024.53C491.161 1023.98 490.441 1023.7 489.501 1023.7V1023.71Z" fill="#758C6D"/>
<path d="M552.622 835.33L541.922 868.51H564.202L552.822 835.33H552.622Z" fill="#758C6D"/>
<path d="M636.141 1051.57C636.341 1051.57 636.631 1051.45 637.001 1051.2C642.851 1046.74 649.281 1040.3 656.271 1031.87C656.971 1031.05 657.531 1030.16 657.961 1029.2C658.391 1028.24 658.831 1027.41 659.281 1026.71C660.791 1024.38 661.551 1022.46 661.551 1020.94C661.551 1019.92 661.281 1019.4 660.751 1019.4C660.181 1019.4 659.301 1019.79 658.111 1020.57C657.821 1020.73 657.561 1020.88 657.311 1021C657.061 1021.12 656.891 1021.21 656.791 1021.28C656.691 1021.34 656.531 1021.44 656.331 1021.59C656.121 1021.73 655.881 1021.93 655.591 1022.17C644.831 1031.83 638.261 1041.42 635.891 1050.96C635.891 1051.37 635.971 1051.57 636.141 1051.57Z" fill="#758C6D"/>
<path d="M792.062 1023.71C791.022 1023.71 789.692 1024.12 788.072 1024.94C775.882 1031.28 766.292 1038.59 759.312 1046.85C756.612 1050.08 754.342 1053.35 752.512 1056.64C750.682 1059.93 749.762 1062.48 749.762 1064.28C749.762 1066.57 750.702 1067.72 752.572 1067.72C753.112 1067.72 754.012 1067.38 755.282 1066.71C756.552 1066.04 757.722 1065.19 758.812 1064.16C761.012 1062.11 764.782 1058.91 770.102 1054.55C775.422 1050.19 779.692 1046.39 782.892 1043.13C786.092 1039.88 788.672 1036.45 790.632 1032.85C791.462 1031.25 792.692 1029.66 794.312 1028.06C794.772 1027.61 795.002 1027 795.002 1026.22C795.002 1025.65 794.752 1025.08 794.252 1024.53C793.752 1023.98 793.022 1023.7 792.072 1023.7L792.062 1023.71Z" fill="#758C6D"/>
<path d="M684.95 835.33L674.25 868.51H696.53L685.15 835.33H684.95Z" fill="#758C6D"/>
<path d="M661.09 633.55C661.09 617.03 652.72 592.84 619.22 592.84C613.87 592.84 611.08 593.3 608.75 593.77V669.83H618.29C649.46 669.83 661.09 655.87 661.09 633.54V633.55Z" fill="#758C6D"/>
<path d="M771.06 295.71C769.17 294.45 769.37 292.39 769.68 291.2C769.62 291.2 769.57 291.2 769.5 291.2C764.5 291.45 761.59 295 761.59 299.28C761.59 303.06 764.44 306.22 768.22 306.9C768.72 305.52 769.73 303.17 771.2 301.98C773.36 300.24 773.82 297.55 771.06 295.7V295.71Z" fill="#758C6D"/>
<path d="M577.05 753.51C584.53 752.4 591.54 747.95 591.54 735.43V608.89C591.54 594.24 581.77 590.75 575.96 590.75H575.03C561.05 593.36 560.84 605.24 560.84 608.66V735.43C560.84 748.8 567.87 751.84 577.05 753.51Z" fill="#758C6D"/>
<path d="M630.07 848.47C630.07 841.56 626.57 831.44 612.56 831.44C610.32 831.44 609.15 831.63 608.18 831.83V863.65H612.17C625.21 863.65 630.07 857.81 630.07 848.47Z" fill="#758C6D"/>
<path d="M754.231 897.41C762.501 897.41 769.991 896.83 777.191 889.24C781.371 884.76 785.171 877.86 785.171 866.37C785.171 858.59 783.131 849.93 778.071 843.21C773.011 836.5 764.841 831.73 752.381 831.73C747.131 831.73 743.141 832.51 740.801 832.9V888.36C740.801 896.63 744.591 897.41 754.231 897.41Z" fill="#758C6D"/>
<path d="M307.101 659.39C324.071 679.45 343.311 702.19 366.931 726.79C367.451 727.34 367.981 727.88 368.491 728.41C368.511 728.44 368.541 728.46 368.561 728.49C380.821 742.1 402.171 766.4 416.931 777.7C416.981 777.74 417.041 777.78 417.091 777.82C422.371 782.25 426.241 784.38 429.371 784.38C431.911 784.38 433.951 783.07 435.581 780.93C435.091 780.98 434.591 781.01 434.081 781.01C432.541 781.01 431.001 780.76 429.531 780.26C419.291 776.8 409.641 770.64 400.841 761.97C389.341 750.61 377.411 736.17 362.841 718.22C362.821 718.2 362.811 718.18 362.801 718.16C361.301 716.32 359.781 714.44 358.231 712.53C338.761 688.52 314.531 658.63 282.081 623.86C266.981 607.68 255.671 595.93 244.341 588.42C234.161 581.68 223.961 578.37 210.981 578.37C199.211 578.37 190.981 582.3 185.461 586.67C191.051 586.23 197.521 585.89 204.101 585.89C205.511 585.89 206.931 585.91 208.381 585.94L208.901 585.96C226.131 586.44 242.841 592.94 255.971 604.25C258.861 606.74 261.341 608.96 263.331 610.83C265.051 612.44 266.781 614.12 268.531 615.88C270.221 617.57 271.921 619.33 273.651 621.15C283.901 631.95 294.881 644.94 307.101 659.39Z" fill="#758C6D"/>
<path d="M517.501 849.25C517.501 839.71 512.731 831.44 500.761 831.44C497.841 831.44 495.601 831.73 494.051 832.02V865.01C495.611 865.3 497.651 865.69 501.251 865.69C508.261 865.69 517.501 863.35 517.501 849.25Z" fill="#758C6D"/>
<path d="M942.29 1023.71C941.27 1023.71 939.96 1024.12 938.36 1024.94C926.37 1031.28 916.94 1038.59 910.07 1046.85C907.41 1050.08 905.18 1053.35 903.38 1056.64C901.58 1059.93 900.68 1062.48 900.68 1064.28C900.68 1066.57 901.6 1067.72 903.44 1067.72C903.97 1067.72 904.86 1067.38 906.11 1066.71C907.36 1066.04 908.51 1065.19 909.58 1064.16C911.75 1062.11 915.45 1058.91 920.69 1054.55C925.93 1050.19 930.12 1046.39 933.27 1043.13C936.42 1039.88 938.96 1036.45 940.88 1032.85C941.7 1031.25 942.91 1029.66 944.5 1028.06C944.95 1027.61 945.18 1027 945.18 1026.22C945.18 1025.65 944.93 1025.08 944.44 1024.53C943.95 1023.98 943.23 1023.7 942.29 1023.7V1023.71Z" fill="#758C6D"/>
<path d="M1092.56 590.75H1091.63C1077.65 593.36 1077.44 605.24 1077.44 608.66V735.43C1077.44 748.8 1084.47 751.84 1093.65 753.51C1101.13 752.4 1108.14 747.95 1108.14 735.43V608.89C1108.14 594.24 1098.37 590.75 1092.56 590.75Z" fill="#758C6D"/>
<path d="M915.553 756.44C902.823 743.91 889.582 727.62 872.822 707C853.302 682.99 829.003 653.1 796.453 618.33C784.913 606 775.583 596.25 766.773 588.98C753.613 578.14 741.623 572.84 725.153 572.84C713.353 572.84 705.102 576.77 699.562 581.14C705.173 580.7 711.663 580.36 718.253 580.36C719.673 580.36 721.092 580.38 722.552 580.41L723.073 580.43C734.533 580.75 745.762 583.72 755.862 588.98C758.752 590.48 761.542 592.17 764.222 594.04C766.312 595.49 768.333 597.06 770.273 598.72C771.223 599.54 772.132 600.33 772.992 601.08C774.752 602.63 776.313 604.04 777.653 605.3C790.863 617.67 805.083 634.44 821.553 653.86C825.803 658.87 830.193 664.05 834.763 669.38C834.763 669.39 834.773 669.39 834.773 669.39C846.363 682.93 859.082 697.46 873.472 712.77C876.102 715.58 878.793 718.41 881.543 721.26C882.073 721.81 882.602 722.35 883.112 722.88C883.132 722.91 883.163 722.93 883.183 722.96C891.823 732.52 904.953 747.36 917.143 759.26C922.303 764.3 927.282 768.81 931.692 772.17C931.742 772.21 931.802 772.25 931.852 772.29C937.142 776.72 941.023 778.85 944.163 778.85C946.713 778.85 948.753 777.54 950.393 775.4C949.903 775.45 949.403 775.48 948.883 775.48C947.343 775.48 945.802 775.23 944.322 774.73C934.662 771.48 925.543 765.84 917.143 757.96C916.613 757.47 916.083 756.96 915.553 756.44Z" fill="#758C6D"/>
<path d="M703.003 123.14C382.753 123.14 123.133 382.76 123.133 703.01C123.133 1023.26 382.753 1282.88 703.003 1282.88C1023.25 1282.88 1282.87 1023.26 1282.87 703.01C1282.87 382.76 1023.25 123.14 703.003 123.14ZM753.093 237C754.803 234.73 758.143 234.66 760.043 236.77C761.543 238.43 762.903 239.24 764.113 239.02C764.693 238.91 765.233 239.33 765.263 239.92C765.403 242.4 766.733 243.84 766.733 243.84C766.733 243.84 766.903 240.49 768.133 236.71C769.323 233.05 772.723 229.62 775.733 229.62C779.613 229.62 783.103 238.87 786.403 239.15C788.813 239.36 790.193 238.6 792.073 236.52C794.093 234.28 797.843 234.83 799.573 237.3C799.743 237.54 799.893 237.78 800.033 238.03C801.563 240.75 804.283 242.66 805.253 246.4C806.223 250.14 808.583 252.89 808.583 252.89V252.87C809.153 251.45 810.523 250.52 812.053 250.52C813.583 250.52 815.003 251.51 815.553 252.98C816.423 255.3 817.603 256.76 819.043 260.16C820.923 264.61 820.923 268.99 822.613 272.31C824.303 275.63 824.553 278.38 827.063 282.27C829.573 286.16 831.443 289.47 831.443 294.85C831.443 300.23 826.623 304.49 826.623 304.49C825.263 300.07 829.253 298.17 829.253 294.72C829.253 291.27 827.183 288.65 825.243 285.42C823.303 282.19 822.993 279.32 821.923 277.63C820.863 275.94 819.153 273.41 818.823 270.86C818.493 268.31 817.543 267.81 815.443 264.26C813.343 260.71 812.563 258.49 812.563 258.49C812.453 265.92 808.623 268.42 806.133 268.42C803.643 268.42 803.083 266.81 802.143 263.82C801.203 260.83 802.083 260.22 801.703 258.27C801.313 256.33 799.813 254.67 798.983 251.17C798.153 247.68 798.263 243.96 798.263 243.96C796.983 244.46 795.713 245.79 795.713 245.79L793.993 243.57C793.993 243.57 793.163 244.85 792.663 248.23C792.163 251.61 790.503 256.33 787.223 256.33C783.943 256.33 782.623 251.95 782.063 248.57C781.503 245.19 779.513 243.8 778.683 240.75C777.853 237.7 775.743 235.65 775.743 235.65L775.133 238.59L772.633 236.65C772.523 246.97 770.633 252.4 766.813 252.4C762.993 252.4 760.163 240.81 756.943 240.81C753.003 240.81 751.783 244.14 751.783 248.46C751.783 252.78 751.463 262.64 751.463 262.64C751.463 262.64 748.963 254.75 748.963 246.83C748.963 243.38 751.053 239.76 753.103 237.04L753.093 237ZM665.263 294.75C681.783 280.91 701.103 270.73 722.073 265.74C729.813 263.89 737.433 262.61 743.673 262.61C765.973 262.61 781.723 275.21 790.923 285.24C798.093 293.05 809.703 308 814.493 314.23C814.753 314.19 815.013 314.16 815.273 314.12C816.053 313.99 816.283 312.97 815.633 312.53C815.033 312.13 814.463 311.72 813.923 311.29C812.623 310.27 812.993 308.26 814.563 307.76C815.853 307.35 817.363 307.12 819.053 307.05C819.903 307.02 820.303 308.1 819.633 308.63C819.083 309.06 819.463 309.93 820.153 309.82L821.603 309.59C823.523 309.28 824.783 311.54 823.523 313.02C822.693 313.99 821.703 314.81 820.523 315.44C820.523 315.44 822.303 322.1 834.773 322.83C833.913 315.13 828.393 311.88 827.383 307.05C835.473 312.69 840.373 320.08 842.483 329C843.143 331.77 840.353 334.12 837.713 333.05C829.193 329.58 823.303 326.24 817.313 326.24C810.063 326.24 800.533 327.45 794.433 327.04C800.303 323.13 807.573 326.67 813.013 322.03C804.583 321.85 796.603 322.12 789.183 320.99C789.183 320.99 791.423 319.59 794.743 317.91C795.993 317.28 797.213 316.59 798.253 315.98C800.123 314.88 802.263 314.41 804.423 314.57C806.253 314.71 808.783 314.78 811.723 314.53C809.113 311.6 803.983 305.76 797.613 298.09C788.283 286.85 778.303 276.26 760.633 271.85C742.963 267.43 722.343 271.17 698.023 284.32C673.703 297.47 674.823 302.43 634.013 329.03C573.573 368.43 534.163 362.92 534.163 362.92C578.343 348.59 632.553 322.15 665.273 294.73L665.263 294.75ZM775.883 361.55C766.843 357.77 762.723 349.19 764.693 341.63C761.653 342.92 757.383 342.26 753.963 338.39C752.523 336.76 750.523 335.75 748.343 335.73C745.103 335.7 740.353 334.89 737.233 330.95C732.093 324.47 735.893 316.75 741.443 314.83C741.443 314.83 738.253 317.49 738.253 321.63C738.253 324.77 742.783 327.44 748.003 327.69C751.283 327.84 754.383 329.16 756.783 331.4C758.193 332.72 759.973 334.14 762.093 335.32C763.013 335.84 763.993 334.75 763.403 333.87C761.463 331 758.983 328.99 760.143 326.63C760.143 326.63 767.693 328.62 768.533 334.74C773.693 329.19 780.503 330.1 780.503 330.1C780.503 330.1 769.863 335.56 769.423 344.74C769.073 351.95 778.763 356.77 784.903 357.38C793.583 358.23 804.143 351.44 804.143 342.44C804.143 333.44 799.963 328.11 799.963 328.11C799.963 328.11 803.483 327.72 805.923 331.04C810.053 336.66 811.363 346.93 806.863 353.73C802.503 360.31 793.633 364.54 783.013 363.33C791.743 373.76 813.963 404.27 813.963 442.31C813.963 485.14 786.463 511.8 786.463 511.8C786.463 511.8 805.523 482.59 805.523 440C805.523 400.67 784.643 371.88 775.903 361.55H775.883ZM776.203 294.27C778.433 295.69 779.993 298.74 777.973 301.43C776.993 302.74 776.033 304.23 775.313 305.42C776.903 304.55 778.553 303.68 781.673 303.75C779.473 307.88 774.963 310.72 769.753 310.72C762.393 310.72 756.423 305.05 756.423 298.05C756.423 291.05 762.393 285.39 769.753 285.39C777.113 285.39 782.813 290.8 783.083 297.57C779.533 296.25 778.513 293.16 774.713 291.82C774.803 292.65 775.163 293.6 776.203 294.26V294.27ZM275.443 747.53C278.463 751.72 284.283 753.58 290.093 753.81V755.68H248.223V753.81C261.953 753.12 266.373 748.23 266.373 719.62L268.323 625.71C264.983 622.2 261.733 618.94 258.543 615.94C256.433 613.96 253.933 611.75 251.403 609.56C239.493 599.3 224.423 593.41 208.713 592.96C208.533 592.96 208.353 592.95 208.183 592.95C189.303 592.5 169.513 595.43 169.513 595.43C169.513 595.43 179.843 571.38 210.983 571.38C229.173 571.38 242.563 577.42 256.133 588.43C265.793 596.27 275.563 606.62 287.203 619.1C337.533 673.03 367.773 714.76 392.373 742.69C393.573 744.06 394.753 745.38 395.933 746.68V622.16C395.933 602.39 395.463 590.99 376.853 590.29V588.43H418.963H465.943V590.29C448.033 592.38 448.033 604.01 448.033 608.9V690.78C448.033 706.13 449.193 718.46 453.153 727.76C460.363 744.74 475.713 754.74 494.323 754.74C499.673 754.74 512.003 753.34 522.933 745.9C533.863 738.46 543.633 724.73 543.633 700.31V608.9C543.633 603.55 543.633 591.92 525.493 590.29V588.43H631.553C670.863 588.43 680.403 615.88 680.403 632.16C680.403 649.61 669.703 667.75 645.283 672.17V672.64C657.613 678.69 665.753 689.39 672.963 701.48L688.083 727.07C703.433 753.12 711.573 753.35 716.693 753.82V755.68H686.223C684.363 753.12 682.503 751.03 679.013 745.91C676.923 742.89 673.193 737.07 672.963 736.84L652.963 703.81C635.513 674.97 619.933 674.27 608.763 674.27V735.44C608.763 751.02 619.693 753.58 626.903 753.82V755.68H543.633V728L543.163 727.54C532.693 752.2 509.433 760.1 491.063 760.1C466.403 760.1 446.403 746.38 438.033 730.56C430.823 717.07 430.823 700.32 430.823 692.18V608.91C430.823 603.01 430.823 593 416.353 590.66C406.753 592.12 401.053 595.14 401.053 613.1V752.2C402.643 753.86 404.213 755.46 405.773 757C414.843 765.96 423.833 770.96 431.783 773.65C435.863 775.03 440.223 772.54 441.243 768.36C442.133 764.75 442.943 760.1 442.943 755.19H448.413C448.413 768.87 445.023 791.4 429.383 791.4C416.953 791.4 404.803 776.32 361.903 731.66C323.543 691.74 296.323 656.23 273.443 631.2L271.493 719.4C271.493 738.47 273.123 744.29 275.453 747.54L275.443 747.53ZM704.123 890.22C704.023 890.03 703.933 889.73 703.933 889.64L697.703 871.06H673.473L667.923 888.28C667.433 889.74 666.753 892.46 666.753 893.92C666.753 898.2 669.473 898.79 672.393 898.79V899.57H655.953V898.79C660.823 898.4 663.253 895.09 665.293 888.96L685.043 828.73H690.203L711.123 888.67C714.533 898.3 717.153 898.5 720.563 898.79V899.57H697.693V898.79C700.713 898.79 704.993 899.08 704.993 894.51C704.993 893.93 704.803 892.37 704.113 890.23L704.123 890.22ZM615.773 898.78V899.56H593.493V898.78C597.093 898.68 600.983 897.13 600.983 891.09V838.16C600.983 832.03 596.893 830.57 594.463 830.57H593.493V829.6H617.723C634.163 829.6 638.153 841.08 638.153 847.89C638.153 855.19 633.673 862.78 623.463 864.63V864.82C628.623 867.35 632.023 871.83 635.043 876.89L641.363 887.59C647.783 898.49 651.193 898.59 653.333 898.78V899.56H640.583C639.803 898.49 639.023 897.61 637.563 895.47C636.683 894.21 635.133 891.77 635.033 891.68L626.663 877.86C619.363 865.79 612.843 865.5 608.173 865.5V891.09C608.173 897.61 612.743 898.68 615.763 898.78H615.773ZM571.793 890.22C571.693 890.03 571.603 889.73 571.603 889.64L565.373 871.06H541.143L535.593 888.28C535.103 889.74 534.423 892.46 534.423 893.92C534.423 898.2 537.143 898.79 540.063 898.79V899.57H523.623V898.79C528.493 898.4 530.923 895.09 532.963 888.96L552.713 828.73H557.873L578.793 888.67C582.203 898.3 584.823 898.5 588.233 898.79V899.57H565.363V898.79C568.383 898.79 572.663 899.08 572.663 894.51C572.663 893.93 572.473 892.37 571.783 890.23L571.793 890.22ZM501.643 898.78V899.56H479.363V898.78C483.063 898.68 486.853 897.03 486.853 891.09V838.16C486.853 831.06 481.793 830.76 480.333 830.38H479.363V829.6H502.323C517.893 829.6 525.583 839.04 525.583 848.67C525.583 858.3 518.963 867.55 501.553 867.55C498.343 867.55 495.913 867.16 494.063 866.97V891.1C494.063 897.62 498.633 898.69 501.653 898.79L501.643 898.78ZM381.803 1010.02C370.873 1028.52 363.553 1047.6 359.833 1067.28C359.423 1069.53 359.223 1071 359.223 1071.7C359.223 1072.03 359.243 1072.53 359.283 1073.2C359.323 1073.88 359.343 1074.38 359.343 1074.7C359.343 1076.01 359.103 1077.01 358.633 1077.71C358.163 1078.41 357.253 1078.75 355.903 1078.75C354.553 1078.75 352.463 1077.95 349.523 1076.36C349.193 1076.16 348.833 1075.71 348.453 1075.01C348.063 1074.31 347.873 1073.76 347.873 1073.35C347.873 1071.88 348.073 1070.12 348.483 1068.07C353.803 1046.1 360.473 1026.91 368.493 1010.5C368.493 1010.17 368.243 1010.01 367.753 1010.01C361.823 1010.42 358.753 1010.62 358.543 1010.62C357.193 1010.62 355.843 1010.44 354.493 1010.07C353.143 1009.7 352.163 1009.21 351.543 1008.6C351.333 1008.4 351.233 1007.19 351.233 1004.98C351.233 1003.63 351.563 1002.56 352.213 1001.76C352.863 1000.96 353.483 1000.56 354.053 1000.56C354.213 1000.56 354.543 1000.63 355.033 1000.77C355.523 1000.91 356.473 1001.06 357.883 1001.2C359.293 1001.34 361.223 1001.41 363.683 1001.41C367.653 1001.41 373.663 1000.75 381.723 999.42C389.783 998.09 396.003 997.42 400.383 997.42C402.513 997.42 404.973 998.25 407.783 999.91C410.583 1001.57 411.983 1002.83 411.983 1003.69C411.983 1005.9 411.433 1007.17 410.323 1007.49C410.203 1007.53 409.943 1007.67 409.553 1007.92C409.163 1008.17 408.723 1008.38 408.233 1008.56C407.743 1008.74 407.193 1008.84 406.573 1008.84C406.243 1008.84 405.883 1008.63 405.503 1008.2C405.113 1007.77 404.593 1007.43 403.943 1007.19C403.493 1007.03 403.033 1006.84 402.563 1006.64C402.093 1006.43 401.753 1006.28 401.553 1006.18C401.343 1006.08 401.103 1006 400.813 1005.93C400.523 1005.87 400.223 1005.84 399.893 1005.84C394.243 1005.84 388.003 1006.48 381.173 1007.74C381.743 1008.31 382.033 1008.8 382.033 1009.21C382.033 1009.42 381.953 1009.68 381.783 1010.01L381.803 1010.02ZM436.823 1031.99C436.293 1032.89 435.843 1033.77 435.473 1034.63C435.103 1035.49 434.743 1036.42 434.403 1037.42C434.053 1038.42 433.783 1039.17 433.573 1039.66C429.193 1050.09 427.003 1059.05 427.003 1066.54C427.003 1069.32 427.253 1071.26 427.773 1072.34C428.283 1073.42 429.093 1074.25 430.193 1074.83C430.233 1074.87 431.273 1075.14 433.323 1075.63C433.893 1075.79 434.183 1076.12 434.183 1076.61C434.183 1076.69 433.973 1077.24 433.573 1078.27C433.243 1079.05 432.443 1079.62 431.183 1079.99C430.853 1080.07 430.393 1080.21 429.803 1080.42C429.213 1080.62 428.673 1080.78 428.203 1080.88C427.733 1080.98 427.253 1081.03 426.763 1081.03C426.023 1081.03 424.823 1080.72 423.143 1080.11C418.603 1078.43 416.333 1074.46 416.333 1068.2C416.333 1064.11 417.133 1059.4 418.723 1054.08C420.073 1049.66 421.623 1045.34 423.383 1041.13C423.713 1040.35 423.873 1039.86 423.873 1039.66C423.873 1039.5 423.793 1039.41 423.623 1039.41C423.293 1039.41 422.743 1039.86 421.963 1040.76C418.973 1044.16 414.713 1049.83 409.163 1057.79C403.623 1065.75 399.683 1071.1 397.353 1073.84C396.903 1074.41 396.453 1074.82 396.003 1075.07C394.163 1076.18 392.563 1076.73 391.213 1076.73C390.763 1076.73 389.783 1076.37 388.263 1075.66C386.753 1074.95 385.543 1074.14 384.643 1073.24C384.313 1072.91 384.153 1072.44 384.153 1071.83C384.153 1071.34 384.293 1070.83 384.583 1070.3C384.873 1069.77 385.093 1069.15 385.263 1068.46C386.203 1064.49 387.403 1060.41 388.853 1056.22C390.303 1052.03 392.323 1047.13 394.903 1041.52C397.483 1035.91 399.553 1031.51 401.133 1028.29C402.703 1025.08 405.353 1019.77 409.083 1012.36C410.763 1009.05 413.723 1003.55 417.983 995.88C422.233 988.21 425.433 982.22 427.553 977.93C428.083 976.78 429.173 976.21 430.803 976.21C431.253 976.21 431.763 976.25 432.333 976.33C432.903 976.41 433.273 976.45 433.433 976.45C434.533 976.45 435.703 977.06 436.933 978.29C437.713 979.07 438.103 980.13 438.103 981.48C438.103 982.26 437.923 983.04 437.553 983.81C437.183 984.59 436.803 985.23 436.413 985.74C436.023 986.25 435.353 987.04 434.383 988.1C433.423 989.16 432.673 990.04 432.143 990.74C431.853 991.07 431.063 992.19 429.753 994.12C426.353 998.79 423.013 1004.33 419.713 1010.75C416.423 1017.17 412.493 1025.52 407.933 1035.79C403.373 1046.06 400.433 1052.59 399.123 1055.37C398.963 1055.74 398.793 1056.09 398.633 1056.41L398.263 1057.15C398.183 1057.31 398.123 1057.45 398.083 1057.55C398.043 1057.65 398.013 1057.72 397.993 1057.76C397.973 1057.8 397.963 1057.84 397.963 1057.88C397.963 1058.04 398.043 1058.13 398.213 1058.13C398.383 1058.13 398.683 1057.8 399.133 1057.15C408.053 1044.75 417.563 1033.09 427.673 1022.17C429.223 1020.49 430.393 1019.53 431.173 1019.29C432.403 1018.88 433.363 1018.68 434.053 1018.68C435.653 1018.68 437.203 1018.97 438.713 1019.54C439.163 1019.75 439.593 1020.09 440.003 1020.58C440.413 1021.07 440.613 1021.52 440.613 1021.93C440.613 1023.08 440.433 1024.23 440.063 1025.4C439.693 1026.57 439.303 1027.55 438.893 1028.35C438.483 1029.15 437.793 1030.37 436.803 1032L436.823 1031.99ZM492.973 1045.16C491.193 1048.66 489.933 1051.9 489.203 1054.89C488.053 1059.55 487.483 1063.28 487.483 1066.06C487.483 1069.7 488.363 1072.85 490.123 1075.51C490.283 1075.84 490.373 1076.08 490.373 1076.25C490.373 1076.37 490.313 1076.54 490.193 1076.74C490.073 1076.94 489.793 1077.18 489.363 1077.45C488.933 1077.72 488.393 1077.89 487.733 1077.97C487.573 1078.01 487.203 1078.11 486.633 1078.28C486.063 1078.44 485.633 1078.53 485.343 1078.53C484.283 1078.53 483.193 1078.3 482.093 1077.86C480.993 1077.41 480.273 1076.79 479.943 1076.02C478.513 1072.91 477.793 1069.31 477.793 1065.22C477.793 1064.12 477.833 1063.07 477.913 1062.09C477.993 1061.11 478.073 1060.34 478.163 1059.79C478.243 1059.24 478.283 1058.94 478.283 1058.9C478.283 1058.61 478.263 1058.44 478.223 1058.38C478.183 1058.32 478.043 1058.29 477.793 1058.29C477.303 1058.29 476.303 1059.05 474.783 1060.56L467.973 1066.82C464.983 1069.64 462.413 1071.7 460.243 1072.99C458.073 1074.28 455.683 1075.37 453.063 1076.27C452.083 1076.6 451.403 1076.76 451.033 1076.76C450.293 1076.76 449.353 1076.4 448.213 1075.69C447.063 1074.98 445.063 1073.45 442.193 1071.12C440.353 1069.65 439.433 1067.17 439.433 1063.69C439.433 1058.82 441.953 1052.62 446.983 1045.09C448.743 1042.51 450.513 1040.16 452.293 1038.03C454.073 1035.9 455.833 1034.04 457.573 1032.45C459.313 1030.85 460.643 1029.69 461.563 1028.95C462.483 1028.21 463.663 1027.31 465.093 1026.25C471.193 1021.75 477.903 1018.43 485.223 1016.31C486.083 1016.06 487.003 1015.94 487.983 1015.94C490.683 1015.94 493.243 1017.15 495.653 1019.56C496.713 1020.62 497.353 1021.46 497.553 1022.08C498.203 1023.68 499.213 1024.47 500.563 1024.47C502.203 1024.47 503.363 1025.02 504.063 1026.13C504.223 1026.38 504.313 1026.62 504.313 1026.87C504.313 1027.28 504.153 1027.73 503.823 1028.22C501.453 1031.49 499.493 1034.27 497.963 1036.54C496.433 1038.81 494.773 1041.7 492.993 1045.19L492.973 1045.16ZM533.203 1065.94C532.893 1066.39 532.373 1066.98 531.633 1067.72L526.473 1072.45C522.013 1076.5 517.693 1078.53 513.523 1078.53C511.723 1078.53 509.893 1077.49 508.033 1075.4C506.173 1073.31 504.873 1071.04 504.133 1068.59C503.723 1067.12 503.523 1065.36 503.523 1063.31C503.523 1060.2 504.173 1056.8 505.483 1053.12C505.683 1052.51 506.023 1051.47 506.493 1050.02C506.963 1048.57 507.343 1047.51 507.633 1046.86C513.243 1033.52 517.313 1024.21 519.843 1018.93C520.903 1016.68 522.993 1015.55 526.103 1015.55C527.863 1015.55 529.133 1015.88 529.913 1016.53C530.563 1017.06 530.893 1017.74 530.893 1018.56C530.893 1020.52 530.453 1022.35 529.573 1024.02C528.693 1025.7 527.523 1027.5 526.073 1029.42C524.623 1031.34 523.543 1033.04 522.853 1034.51C520.483 1039.67 518.003 1045.62 515.423 1052.37C513.423 1057.65 512.413 1061.74 512.413 1064.65C512.413 1067.35 513.173 1068.7 514.683 1068.7C516.033 1068.7 517.243 1068.45 518.303 1067.93C519.363 1067.42 521.213 1066.24 523.823 1064.4C525.463 1063.26 526.623 1062.51 527.323 1062.16C528.023 1061.81 528.833 1061.64 529.783 1061.64C531.133 1061.64 532.173 1061.95 532.913 1062.56C533.403 1062.97 533.653 1063.54 533.653 1064.28C533.653 1064.93 533.503 1065.49 533.193 1065.94H533.203ZM543.363 996.28C539.963 1000.41 537.283 1002.48 535.323 1002.48C534.173 1002.48 533.143 1002.21 532.223 1001.68C531.303 1001.15 530.663 1000.57 530.293 999.96C529.683 998.73 529.373 997.3 529.373 995.66C529.373 993.57 529.923 991.81 531.033 990.38C532.183 988.95 534.223 988.23 537.173 988.23C538.193 988.23 539.233 988.38 540.273 988.69C541.313 989 542.043 989.4 542.453 989.89C543.473 991.08 543.983 992.45 543.983 994C543.983 995.02 543.773 995.78 543.373 996.27L543.363 996.28ZM622.413 1082.51C621.613 1082.84 620.703 1083 619.683 1083C616.983 1083 613.423 1081.63 609.003 1078.89C607.203 1077.74 605.513 1076.53 603.943 1075.24C602.363 1073.95 600.893 1072.55 599.523 1071.04C598.153 1069.53 596.953 1068.12 595.933 1066.81C594.913 1065.5 593.813 1063.89 592.653 1061.99C591.483 1060.09 590.523 1058.49 589.773 1057.2C589.013 1055.91 588.033 1054.16 586.823 1051.95C585.613 1049.74 584.643 1048 583.903 1046.73C583.533 1046.12 583.183 1045.81 582.863 1045.81C582.373 1045.81 582.003 1046.24 581.763 1047.1C580.203 1052.09 578.923 1057.38 577.893 1062.97C576.873 1068.56 576.363 1072.56 576.363 1074.97C576.363 1075.62 575.913 1076.17 575.013 1076.6C574.113 1077.03 572.843 1077.24 571.203 1077.24C570.833 1077.24 570.543 1077.22 570.343 1077.18C570.133 1077.14 569.973 1077.09 569.853 1077.03C569.733 1076.97 569.503 1076.84 569.183 1076.63C568.853 1076.42 568.483 1076.22 568.083 1076.02C568.043 1076.02 567.893 1075.95 567.623 1075.81C567.353 1075.67 567.153 1075.56 567.013 1075.5C566.873 1075.44 566.663 1075.32 566.403 1075.13C566.133 1074.95 565.943 1074.77 565.823 1074.61C565.703 1074.45 565.573 1074.24 565.453 1074C565.333 1073.76 565.273 1073.51 565.273 1073.26C567.113 1059.55 571.393 1043.08 578.103 1023.85C578.633 1022.34 579.183 1021.19 579.763 1020.41C580.173 1019.84 580.713 1018.59 581.393 1016.67C582.073 1014.75 582.533 1013.54 582.773 1013.05C582.773 1012.68 582.613 1012.5 582.283 1012.5C581.713 1012.5 580.813 1011.75 579.583 1010.26C578.353 1008.77 577.743 1007.67 577.743 1006.98C577.743 1006.33 578.053 1005.79 578.663 1005.38C581.893 1003.05 585.823 1000.97 590.443 999.15C595.063 997.33 599.893 996.42 604.923 996.42C608.773 996.42 612.143 996.89 615.053 997.83C615.753 998.08 616.333 998.3 616.803 998.5C617.273 998.71 617.593 998.85 617.753 998.93C617.913 999.01 618.093 999.14 618.273 999.33C618.453 999.52 618.573 999.61 618.613 999.61C620.213 1000.76 621.253 1001.6 621.743 1002.13C622.233 1002.66 622.703 1003.4 623.153 1004.34C624.383 1006.71 624.993 1009.7 624.993 1013.3C624.993 1016.61 624.183 1020.17 622.573 1023.95C620.953 1027.74 618.513 1031.39 615.243 1034.91C612.993 1037.32 610.413 1039.17 607.513 1040.43C604.603 1041.7 600.393 1043.13 594.873 1044.73C594.423 1044.85 594.113 1044.99 593.953 1045.13C593.793 1045.27 593.703 1045.51 593.703 1045.84C594.193 1047.07 594.923 1048.47 595.883 1050.04C596.843 1051.62 597.993 1053.42 599.323 1055.44C600.653 1057.47 601.643 1059.01 602.303 1060.07C602.673 1060.64 603.083 1061.22 603.533 1061.79C605.943 1064.61 608.303 1067.09 610.593 1069.22C612.513 1070.94 614.123 1072.11 615.413 1072.75C616.703 1073.39 618.183 1073.88 619.863 1074.25C620.683 1074.41 621.523 1075.29 622.383 1076.89C623.243 1078.49 623.673 1079.92 623.673 1081.19C623.673 1081.76 623.273 1082.21 622.473 1082.54L622.413 1082.51ZM795.603 1045.16C793.793 1048.66 792.513 1051.9 791.763 1054.89C790.603 1059.55 790.013 1063.28 790.013 1066.06C790.013 1069.7 790.903 1072.85 792.693 1075.51C792.863 1075.84 792.943 1076.08 792.943 1076.25C792.943 1076.37 792.883 1076.54 792.753 1076.74C792.633 1076.94 792.343 1077.18 791.913 1077.45C791.473 1077.72 790.923 1077.89 790.263 1077.97C790.093 1078.01 789.723 1078.11 789.143 1078.28C788.563 1078.44 788.123 1078.53 787.833 1078.53C786.753 1078.53 785.653 1078.3 784.523 1077.86C783.403 1077.41 782.673 1076.79 782.343 1076.02C780.883 1072.91 780.163 1069.31 780.163 1065.22C780.163 1064.12 780.203 1063.07 780.283 1062.09C780.363 1061.11 780.453 1060.34 780.533 1059.79C780.613 1059.24 780.653 1058.94 780.653 1058.9C780.653 1058.61 780.633 1058.44 780.593 1058.38C780.553 1058.32 780.403 1058.29 780.153 1058.29C779.653 1058.29 778.633 1059.05 777.093 1060.56L770.163 1066.82C767.123 1069.64 764.503 1071.7 762.303 1072.99C760.093 1074.28 757.663 1075.37 755.003 1076.27C754.003 1076.6 753.323 1076.76 752.943 1076.76C752.193 1076.76 751.233 1076.4 750.073 1075.69C748.903 1074.98 746.873 1073.45 743.963 1071.12C742.093 1069.65 741.153 1067.17 741.153 1063.69C741.153 1058.82 743.713 1052.62 748.823 1045.09C750.613 1042.51 752.413 1040.16 754.223 1038.03C755.853 1036.11 757.473 1034.42 759.063 1032.93C758.393 1033.24 757.753 1033.54 757.163 1033.85C756.223 1034.34 755.383 1034.73 754.643 1035.02C752.183 1035.96 748.333 1037.14 743.073 1038.55C737.813 1039.96 735.163 1040.67 735.123 1040.67C734.063 1041.04 733.263 1041.67 732.733 1042.57C732.083 1043.8 731.383 1045.8 730.643 1048.58C730.523 1048.99 730.273 1049.63 729.903 1050.51C729.533 1051.39 729.313 1052.1 729.223 1052.63C729.063 1053.61 728.123 1056.78 726.433 1062.14C724.733 1067.5 723.743 1071.37 723.453 1073.74C723.373 1074.48 723.023 1075.45 722.413 1076.66C721.803 1077.87 721.103 1078.66 720.323 1079.02C719.833 1079.27 719.193 1079.39 718.423 1079.39C716.663 1079.39 715.153 1078.92 713.883 1077.98C712.983 1077.28 712.533 1076.28 712.533 1074.97C712.533 1073.46 712.693 1072.21 713.023 1071.23C713.633 1069.43 714.963 1064.92 717.013 1057.7C719.063 1050.48 720.863 1045.01 722.413 1041.28C722.573 1040.79 722.663 1040.5 722.663 1040.42C722.663 1040.13 722.453 1039.89 722.053 1039.68C720.743 1039.03 719.633 1038.23 718.713 1037.29C717.793 1036.35 716.933 1035.34 716.133 1034.25C715.353 1033.19 714.623 1032.38 713.943 1031.81C713.333 1033.64 712.393 1035.39 711.103 1037.04C710.613 1037.65 710.273 1038.03 710.093 1038.18C709.913 1038.32 709.673 1038.39 709.383 1038.39C708.683 1038.39 707.893 1038.22 706.993 1037.87C706.093 1037.52 705.413 1037.16 704.963 1036.8C703.693 1035.82 703.063 1034.47 703.063 1032.75C703.063 1032.46 703.183 1032.14 703.433 1031.77C704.863 1029.31 705.583 1027.39 705.583 1026C705.583 1024.73 705.293 1023.59 704.723 1022.56C704.473 1022.11 704.083 1021.71 703.523 1021.36C702.973 1021.01 702.453 1020.84 701.963 1020.84C701.633 1020.84 700.933 1021.5 699.843 1022.8C698.763 1024.11 697.633 1025.83 696.463 1027.96C695.293 1030.09 694.573 1032.03 694.283 1033.79C694.123 1034.94 694.033 1036.02 694.033 1037.04C694.033 1038.55 694.323 1041.24 694.893 1045.08C695.183 1047.54 695.923 1052.45 697.133 1059.81C698.343 1067.18 698.943 1071.82 698.943 1073.74C698.943 1074.56 698.593 1075.32 697.903 1076.01C696.923 1076.99 696.133 1077.74 695.543 1078.25C694.953 1078.76 694.143 1079.26 693.123 1079.75C692.103 1080.24 691.053 1080.49 689.993 1080.49C688.723 1080.49 687.683 1080.33 686.863 1080C679.783 1077.14 673.803 1071.75 668.923 1063.85C668.823 1063.95 668.713 1064.06 668.603 1064.16C667.093 1065.63 664.683 1067.55 661.393 1069.9C658.103 1072.25 654.243 1074.66 649.823 1077.11C648.223 1077.97 646.713 1078.4 645.283 1078.4C643.853 1078.4 642.233 1078.09 640.553 1077.48C637.153 1076.29 634.473 1075.13 632.513 1073.98C629.733 1072.43 627.623 1069.54 626.193 1065.33C625.783 1064.14 625.433 1062.55 625.153 1060.54C624.863 1058.54 624.723 1056.9 624.723 1055.63C624.723 1054.36 624.923 1052.93 625.333 1051.46C626.973 1045.53 629.623 1039.82 633.283 1034.34C636.943 1028.86 641.493 1023.21 646.943 1017.4C648.253 1016.01 650.123 1014.72 652.563 1013.53C654.993 1012.34 657.603 1011.75 660.393 1011.75C662.763 1011.75 665.323 1012.22 668.063 1013.16C669.003 1013.49 669.913 1014.31 670.793 1015.62C671.673 1016.93 672.113 1018.71 672.113 1020.96C672.113 1023.21 671.153 1026.22 669.233 1029.98C668.293 1031.9 666.943 1033.87 665.183 1035.87C662.403 1039.06 660.113 1041.63 658.313 1043.57C656.513 1045.51 654.263 1047.83 651.563 1050.51C648.863 1053.19 646.233 1055.52 643.673 1057.51C641.113 1059.5 638.573 1061.18 636.033 1062.57C635.543 1062.86 635.293 1063.18 635.293 1063.55C635.293 1064.49 635.643 1065.53 636.333 1066.65C637.033 1067.78 637.683 1068.5 638.293 1068.83C639.563 1069.48 640.853 1069.81 642.163 1069.81C643.313 1069.81 644.543 1069.59 645.873 1069.14C647.203 1068.69 649.193 1067.75 651.853 1066.32C655.003 1064.6 658.843 1061.81 663.363 1057.94C667.883 1054.07 671.213 1051.46 673.333 1050.11C674.353 1049.5 675.193 1049.19 675.853 1049.19C676.263 1049.19 676.783 1049.47 677.423 1050.02C678.053 1050.57 678.373 1051.14 678.373 1051.71C678.373 1052.12 678.353 1052.49 678.313 1052.82C678.273 1053.15 678.253 1053.33 678.253 1053.37C678.253 1054.23 678.043 1054.82 677.643 1055.15C677.053 1055.65 676.353 1056.31 675.563 1057.09C676.103 1057.35 676.603 1057.78 677.053 1058.4C677.623 1059.14 678.773 1061.01 680.493 1064.02C682.213 1067.03 683.783 1069.19 685.223 1070.5C686.203 1071.4 687.043 1071.85 687.743 1071.85C688.113 1071.85 688.423 1071.75 688.663 1071.54C688.913 1071.34 689.033 1071.11 689.033 1070.87C689.033 1070.54 688.803 1069.23 688.353 1066.94C687.533 1063.18 686.663 1057.67 685.743 1050.43C684.823 1043.19 684.363 1038.81 684.363 1037.3C684.363 1035.38 684.773 1032.89 685.593 1029.84C686.413 1026.79 687.513 1024.16 688.903 1021.95C690.543 1019.33 692.443 1017.34 694.613 1015.97C696.783 1014.6 698.603 1013.91 700.073 1013.91C703.303 1013.91 705.803 1014.28 707.563 1015.01C709.323 1015.75 710.943 1016.89 712.413 1018.45C714.013 1020.17 714.803 1022.89 714.803 1026.61C714.803 1027.32 714.743 1028.01 714.663 1028.69C714.703 1028.67 714.733 1028.66 714.763 1028.64C715.663 1028.19 716.503 1027.96 717.283 1027.96C718.223 1027.96 719.643 1028.3 721.553 1028.97C723.453 1029.64 724.773 1029.98 725.513 1029.98C726.663 1029.98 727.353 1029.39 727.603 1028.2C727.853 1027.22 728.523 1025.25 729.633 1022.31C730.083 1021.12 731.043 1018.59 732.513 1014.7C733.983 1010.81 735.333 1007.36 736.563 1004.33C737.793 1001.3 739.043 998.42 740.303 995.68C740.633 994.9 740.873 994.43 741.043 994.27C741.203 994.11 741.433 994.02 741.713 994.02C742.453 994.02 743.133 993.92 743.773 993.71C744.403 993.51 744.883 993.4 745.213 993.4C746.643 993.4 748.243 993.75 750.003 994.44C750.743 994.73 751.103 995.01 751.103 995.3C751.103 995.71 751.063 996.16 750.983 996.65C750.493 999.6 749.643 1002.52 748.433 1005.43C747.223 1008.34 745.573 1011.74 743.463 1015.65C741.353 1019.56 739.973 1022.21 739.323 1023.6C738.753 1024.79 738.123 1026.33 737.453 1028.23C736.773 1030.13 736.443 1031.19 736.443 1031.39C736.443 1031.64 736.603 1031.76 736.933 1031.76C737.383 1031.76 738.423 1031.6 740.063 1031.27C742.803 1030.74 745.783 1029.87 748.993 1028.66C752.203 1027.45 754.853 1026.22 756.943 1024.95C757.643 1024.54 758.093 1024.34 758.293 1024.34C759.443 1024.34 760.753 1024.7 762.223 1025.41C763.693 1026.13 764.433 1026.85 764.433 1027.59C764.433 1027.87 764.383 1028.16 764.313 1028.44C765.133 1027.81 766.113 1027.08 767.253 1026.24C773.453 1021.74 780.273 1018.42 787.723 1016.3C788.593 1016.05 789.533 1015.93 790.533 1015.93C793.283 1015.93 795.873 1017.14 798.333 1019.55C799.413 1020.61 800.063 1021.45 800.263 1022.07C800.923 1023.67 801.943 1024.46 803.323 1024.46C804.983 1024.46 806.173 1025.01 806.883 1026.12C807.053 1026.37 807.133 1026.61 807.133 1026.86C807.133 1027.27 806.963 1027.72 806.633 1028.21C804.223 1031.48 802.233 1034.26 800.673 1036.53C799.113 1038.8 797.433 1041.69 795.623 1045.18L795.603 1045.16ZM727.093 830.37H726.123V829.59H753.073C768.743 829.59 778.273 835.62 783.233 840.59C790.043 847.4 793.543 856.35 793.543 865.89C793.543 878.64 787.223 888.95 777.103 895.08C773.893 897.03 768.543 899.56 757.543 899.56H726.113V898.78H727.083C731.853 898.78 733.603 894.11 733.603 891.09V838.25C733.603 832.61 730.493 830.37 727.083 830.37H727.093ZM802.893 830.37V829.59H825.083V830.37C821.483 830.37 817.593 832.02 817.593 837.96V891.09C817.593 897.12 821.973 898.78 825.083 898.78V899.56H802.893V898.78C806.303 898.78 810.383 897.13 810.383 891.09V837.96C810.383 831.44 805.903 830.37 802.893 830.37ZM844.373 1085.39C844.003 1085.64 843.403 1085.76 842.573 1085.76C841.373 1085.76 839.763 1085.15 837.743 1083.92C837.243 1083.59 836.783 1083.35 836.353 1083.18C835.923 1083.01 835.643 1082.9 835.513 1082.84C835.393 1082.78 835.243 1082.66 835.083 1082.47C834.913 1082.29 834.753 1081.97 834.583 1081.52C833.753 1079.43 833.343 1076.92 833.343 1073.97C833.343 1072.78 833.403 1071.13 833.533 1069C833.653 1066.87 833.723 1065.69 833.723 1065.44C833.723 1064.91 833.553 1064.64 833.223 1064.64C832.853 1064.64 832.253 1065.15 831.423 1066.17C826.223 1072.18 821.493 1076.26 817.233 1078.38C816.573 1078.71 816.013 1078.87 815.563 1078.87C815.273 1078.87 814.783 1078.81 814.073 1078.69C813.373 1078.57 812.413 1078.31 811.193 1077.92C809.973 1077.53 808.893 1077.05 807.943 1076.48C805.673 1075.09 804.413 1073.78 804.163 1072.55C803.703 1070.22 803.483 1068.42 803.483 1067.15C803.483 1066.54 803.513 1065.9 803.573 1065.25C803.633 1064.6 803.733 1063.85 803.883 1063.01C804.023 1062.17 804.143 1061.52 804.223 1061.05C804.303 1060.58 804.493 1059.82 804.783 1058.78C805.073 1057.74 805.243 1057.09 805.313 1056.85C805.373 1056.6 805.583 1055.89 805.933 1054.7C806.283 1053.51 806.463 1052.9 806.463 1052.86C806.753 1051.92 807.073 1050.66 807.423 1049.08C807.773 1047.51 808.153 1046.12 808.573 1044.94C809.073 1043.59 809.813 1041.22 810.803 1037.82C811.793 1034.42 812.793 1031.44 813.803 1028.86C814.813 1026.28 816.043 1023.77 817.493 1021.31C818.773 1019.14 820.593 1018.06 822.943 1018.06C823.723 1018.06 824.563 1018.22 825.453 1018.55C826.343 1018.88 826.933 1019.37 827.223 1020.02C827.303 1020.18 827.483 1020.46 827.753 1020.85C828.023 1021.24 828.243 1021.63 828.403 1022.02C828.563 1022.41 828.653 1022.81 828.653 1023.22C828.653 1024.57 827.803 1025.78 826.113 1026.84C824.423 1027.9 823.203 1029.87 822.463 1032.73C821.803 1035.27 820.163 1040.47 817.533 1048.35C814.913 1056.23 813.373 1061.93 812.923 1065.44C812.753 1066.54 812.673 1067.51 812.673 1068.32C812.673 1068.65 812.873 1069.02 813.263 1069.42C813.653 1069.83 814.053 1070.03 814.473 1070.03C814.723 1070.03 815.153 1069.91 815.773 1069.66C816.393 1069.41 816.893 1069.13 817.263 1068.8C819.083 1067.2 820.593 1065.64 821.813 1064.1C823.033 1062.56 823.743 1061.7 823.953 1061.49C832.953 1051.88 839.253 1042.49 842.843 1033.32C843.173 1032.46 843.453 1031.89 843.683 1031.6C843.913 1031.31 844.393 1030.97 845.143 1030.56C846.053 1030.07 847.023 1029.82 848.053 1029.82C848.423 1029.82 848.973 1030.03 849.693 1030.43C850.413 1030.84 850.883 1031.06 851.083 1031.11C852.773 1031.6 853.623 1032.34 853.623 1033.32C853.623 1034.67 853.373 1035.9 852.883 1037C848.093 1047.15 845.013 1056.62 843.653 1065.42C843.113 1069.23 842.843 1072.32 842.843 1074.69C842.843 1075.75 843.223 1077.2 843.993 1079.02C844.753 1080.84 845.143 1082.2 845.143 1083.1C845.143 1084.24 844.893 1085 844.403 1085.37L844.373 1085.39ZM851.453 869.19C842.693 864.52 833.643 859.75 833.643 847.69C833.643 837.76 841.813 828.23 854.563 828.23C857.973 828.23 860.883 828.81 864.003 829.79C864.193 829.89 865.263 830.18 866.043 830.18C866.233 830.18 867.603 830.18 868.183 828.04H868.963V843.03H868.183C867.403 837.09 862.633 830.28 853.783 830.28C845.413 830.28 840.063 836.6 840.063 844.88C840.063 854.22 845.803 857.43 856.123 863.08C863.133 866.97 872.373 872.03 872.373 883.03C872.373 891.5 865.953 901.13 851.553 901.13C845.033 901.13 840.463 899.28 837.153 897.63C836.863 897.53 835.983 897.14 835.203 897.14C833.643 897.14 833.553 898.89 833.063 900.93H832.283V883.41H833.063C835.403 894.02 842.603 898.98 851.743 898.98C863.323 898.98 865.953 891.29 865.953 886.43C865.953 877.96 859.823 873.68 851.453 869.21V869.19ZM876.493 1047.82C873.583 1050.73 871.063 1054.11 868.913 1057.98C866.763 1061.85 865.163 1066.01 864.093 1070.47C863.393 1073.5 862.353 1075.5 860.963 1076.48C860.353 1077.22 859.593 1077.58 858.693 1077.58C858.323 1077.54 857.973 1077.47 857.653 1077.37C857.323 1077.27 857.013 1077.09 856.703 1076.85C856.393 1076.6 856.173 1076.42 856.033 1076.3C855.893 1076.18 855.673 1075.93 855.393 1075.56C855.103 1075.19 854.943 1074.99 854.903 1074.95C853.473 1073.52 852.693 1071.94 852.573 1070.22C852.573 1068.62 853.593 1066.34 855.643 1063.38C857.693 1060.41 858.913 1058.28 859.323 1056.97C859.693 1055.86 860.463 1053.57 861.623 1050.09C862.793 1046.61 863.643 1044.04 864.173 1042.36C864.703 1040.68 865.353 1038.45 866.103 1035.67C866.863 1032.89 867.483 1030.31 867.973 1027.94C868.013 1027.61 868.053 1027.31 868.093 1027.02C868.133 1026.73 868.173 1026.51 868.213 1026.34C868.253 1026.18 868.273 1026.05 868.273 1025.97C868.273 1025.72 868.093 1025.27 867.723 1024.62C867.353 1023.97 867.153 1023.45 867.113 1023.08C867.113 1022.51 867.603 1021.89 868.583 1021.24C869.563 1020.59 870.713 1020.26 872.023 1020.26C872.883 1020.26 873.743 1020.41 874.603 1020.72C875.463 1021.03 875.993 1021.34 876.203 1021.67C877.433 1023.63 878.043 1025.99 878.043 1028.73C878.043 1030.04 877.793 1031.45 877.303 1032.96C877.223 1033.37 877.133 1033.74 877.023 1034.06C876.923 1034.39 876.863 1034.6 876.843 1034.7C876.823 1034.8 876.813 1034.9 876.813 1034.98C876.813 1035.31 876.933 1035.47 877.183 1035.47C877.553 1035.47 878.103 1035.14 878.843 1034.49C885.803 1029.17 891.613 1025.74 896.273 1024.18C896.763 1024.02 897.273 1023.93 897.803 1023.93C901.893 1023.93 904.943 1025.1 906.953 1027.43C907.563 1028.04 907.873 1028.76 907.873 1029.58C907.873 1031.26 907.333 1032.6 906.243 1033.6C905.163 1034.6 904.223 1035.1 903.453 1035.1C902.793 1035.1 901.833 1034.9 900.573 1034.49C899.303 1034.08 898.383 1033.88 897.813 1033.88C897.203 1033.88 896.523 1034.04 895.783 1034.37C892.143 1036.05 888.743 1037.98 885.593 1040.17C882.443 1042.36 879.413 1044.91 876.513 1047.81L876.493 1047.82ZM880.253 830.36H879.283V829.58H921.023V840.58H920.343C920.343 832.31 912.753 831.73 908.573 831.73H893.973V863.55H906.813C909.833 863.55 916.353 863.45 917.033 856.64H917.713V872.5H917.033C916.063 866.56 911.973 865.98 911.003 865.98C909.833 865.79 907.693 865.69 907.403 865.69H893.973V890.5C893.973 892.64 893.973 897.41 900.003 897.41H910.413C918.393 897.41 921.023 893.62 922.773 888.56H923.453L921.023 899.56H879.283V898.78H880.253C882.293 898.78 886.773 897.22 886.773 891.09V838.35C886.773 835.04 885.513 830.37 880.253 830.37V830.36ZM997.443 1062.86C995.943 1070 995.903 1074.54 996.263 1077.3C996.523 1079.31 994.733 1080.98 992.743 1080.62C990.813 1080.28 989.163 1079.83 987.903 1079.44C986.373 1078.96 985.413 1077.45 985.633 1075.85C986.073 1072.6 987.053 1066.06 989.063 1054.55C990.633 1045.56 991.823 1038.98 992.623 1034.64C993.113 1031.97 989.853 1030.29 987.953 1032.23C986.363 1033.86 984.403 1036.14 982.043 1039.33C973.403 1050.96 968.703 1061.48 967.073 1067.69C965.453 1073.9 962.623 1074.31 958.033 1073.27C953.443 1072.23 953.453 1071.5 955.733 1064.52C958.013 1057.54 960.323 1045.24 960.323 1038.99C960.323 1032.74 959.073 1029.3 956.843 1026.08C957.003 1026.33 957.093 1026.57 957.093 1026.82C957.093 1027.23 956.933 1027.68 956.603 1028.17C954.233 1031.44 952.273 1034.22 950.743 1036.49C949.213 1038.76 947.553 1041.65 945.773 1045.14C943.993 1048.64 942.733 1051.88 942.003 1054.87C940.853 1059.53 940.283 1063.26 940.283 1066.04C940.283 1069.68 941.163 1072.83 942.923 1075.49C943.083 1075.82 943.173 1076.06 943.173 1076.23C943.173 1076.35 943.113 1076.52 942.993 1076.72C942.873 1076.92 942.593 1077.16 942.163 1077.43C941.733 1077.7 941.193 1077.87 940.533 1077.95C940.373 1077.99 940.003 1078.09 939.433 1078.26C938.863 1078.42 938.433 1078.51 938.143 1078.51C937.083 1078.51 935.993 1078.28 934.893 1077.84C933.793 1077.39 933.073 1076.77 932.743 1076C931.313 1072.89 930.593 1069.29 930.593 1065.2C930.593 1064.1 930.633 1063.05 930.713 1062.07C930.793 1061.09 930.873 1060.32 930.963 1059.77C931.043 1059.22 931.083 1058.92 931.083 1058.88C931.083 1058.59 931.063 1058.42 931.023 1058.36C930.983 1058.3 930.843 1058.27 930.593 1058.27C930.103 1058.27 929.103 1059.03 927.583 1060.54L920.773 1066.8C917.783 1069.62 915.213 1071.68 913.043 1072.97C910.873 1074.26 908.483 1075.35 905.863 1076.25C904.883 1076.58 904.203 1076.74 903.833 1076.74C903.093 1076.74 902.153 1076.38 901.013 1075.67C899.863 1074.96 897.863 1073.43 894.993 1071.1C893.153 1069.63 892.233 1067.15 892.233 1063.67C892.233 1058.8 894.753 1052.6 899.783 1045.07C901.543 1042.49 903.313 1040.14 905.093 1038.01C906.873 1035.88 908.633 1034.02 910.373 1032.43C912.113 1030.83 913.443 1029.67 914.363 1028.93C915.283 1028.19 916.463 1027.29 917.893 1026.23C923.993 1021.73 930.703 1018.41 938.023 1016.29C938.883 1016.04 939.803 1015.92 940.783 1015.92C943.483 1015.92 946.043 1017.13 948.453 1019.54C949.513 1020.6 950.153 1021.44 950.353 1022.06C951.003 1023.66 952.013 1024.45 953.363 1024.45C955.003 1024.45 956.163 1025 956.863 1026.11C954.633 1022.89 955.873 1019.6 959.613 1019.85C966.393 1020.3 968.713 1023.46 969.603 1028.66C970.493 1033.86 971.193 1039.02 971.193 1039.02C971.193 1039.02 976.213 1030.51 981.973 1025.68C983.353 1024.52 984.813 1023.55 986.293 1022.73C993.793 1018.59 1002.82 1024.77 1001.82 1033.28C1000.69 1042.9 999.093 1055.06 997.443 1062.88V1062.86ZM1053.86 1030.23C1053.13 1031.11 1052.09 1031.82 1050.75 1032.35C1049.58 1032.84 1048.51 1033.33 1047.55 1033.82C1046.59 1034.31 1045.73 1034.7 1044.97 1034.99C1042.46 1035.93 1038.51 1037.11 1033.13 1038.52C1027.75 1039.93 1025.03 1040.64 1024.99 1040.64C1023.9 1041.01 1023.08 1041.64 1022.54 1042.54C1021.87 1043.77 1021.16 1045.77 1020.4 1048.55C1020.27 1048.96 1020.02 1049.6 1019.65 1050.48C1019.28 1051.36 1019.04 1052.07 1018.96 1052.6C1018.79 1053.58 1017.84 1056.75 1016.1 1062.11C1014.36 1067.47 1013.35 1071.34 1013.05 1073.71C1012.97 1074.45 1012.61 1075.42 1011.98 1076.63C1011.35 1077.84 1010.64 1078.63 1009.84 1078.99C1009.34 1079.24 1008.69 1079.36 1007.89 1079.36C1006.09 1079.36 1004.54 1078.89 1003.24 1077.95C1002.32 1077.25 1001.86 1076.25 1001.86 1074.94C1001.86 1073.43 1002.03 1072.18 1002.36 1071.2C1002.99 1069.4 1004.35 1064.89 1006.44 1057.67C1008.53 1050.45 1010.38 1044.98 1011.97 1041.25C1012.14 1040.76 1012.22 1040.47 1012.22 1040.39C1012.22 1040.1 1012.01 1039.86 1011.59 1039.65C1010.25 1039 1009.11 1038.2 1008.17 1037.26C1007.23 1036.32 1006.35 1035.31 1005.53 1034.22C1004.71 1033.14 1003.95 1032.31 1003.24 1031.73C1002.82 1031.4 1002.61 1030.89 1002.61 1030.2C1002.61 1029.79 1002.71 1029.49 1002.92 1029.31C1003.13 1029.13 1003.53 1028.89 1004.11 1028.6C1005.03 1028.15 1005.89 1027.92 1006.69 1027.92C1007.65 1027.92 1009.11 1028.26 1011.06 1028.93C1013.01 1029.6 1014.36 1029.94 1015.11 1029.94C1016.28 1029.94 1017 1029.35 1017.25 1028.16C1017.5 1027.18 1018.19 1025.21 1019.32 1022.27C1019.78 1021.08 1020.77 1018.55 1022.27 1014.66C1023.78 1010.77 1025.16 1007.32 1026.42 1004.29C1027.68 1001.26 1028.95 998.38 1030.25 995.64C1030.58 994.86 1030.84 994.39 1031 994.23C1031.17 994.07 1031.4 993.98 1031.69 993.98C1032.44 993.98 1033.15 993.88 1033.79 993.67C1034.44 993.47 1034.93 993.36 1035.27 993.36C1036.74 993.36 1038.37 993.71 1040.17 994.4C1040.92 994.69 1041.3 994.97 1041.3 995.26C1041.3 995.67 1041.26 996.12 1041.17 996.61C1040.67 999.56 1039.8 1002.48 1038.56 1005.39C1037.32 1008.3 1035.63 1011.7 1033.47 1015.61C1031.31 1019.52 1029.9 1022.17 1029.23 1023.56C1028.64 1024.75 1028 1026.29 1027.31 1028.19C1026.62 1030.09 1026.27 1031.15 1026.27 1031.35C1026.27 1031.6 1026.44 1031.72 1026.77 1031.72C1027.23 1031.72 1028.3 1031.56 1029.97 1031.23C1032.78 1030.7 1035.82 1029.83 1039.11 1028.62C1042.4 1027.41 1045.11 1026.18 1047.25 1024.91C1047.96 1024.5 1048.42 1024.3 1048.63 1024.3C1049.8 1024.3 1051.14 1024.66 1052.65 1025.37C1054.16 1026.09 1054.91 1026.81 1054.91 1027.55C1054.91 1028.45 1054.54 1029.34 1053.81 1030.22L1053.86 1030.23ZM1202.84 755.66C1200.98 753.1 1199.12 751.01 1195.63 745.89C1193.54 742.87 1189.81 737.05 1189.58 736.82L1169.58 703.79C1152.13 674.95 1136.55 674.25 1125.38 674.25V735.42C1125.38 751 1136.31 753.56 1143.52 753.8V755.66H1060.25V727.98L1059.78 727.52C1049.31 752.18 1026.05 760.08 1007.68 760.08C983.023 760.08 963.023 746.36 954.653 730.54C947.443 717.05 947.443 700.3 947.443 692.16V608.89C947.443 603.2 947.443 593.7 934.483 590.92C923.673 592.32 917.163 594.47 917.163 613.64V748.08C918.283 749.24 919.393 750.36 920.503 751.45C929.613 760.41 938.613 765.41 946.593 768.1C950.683 769.48 955.053 766.99 956.083 762.8C956.973 759.19 957.783 754.55 957.783 749.64H963.273C963.273 763.31 959.873 785.85 944.183 785.85C931.723 785.85 919.533 770.76 876.513 726.11C838.883 687.05 811.933 652.21 789.293 627.29C788.763 626.71 788.243 626.14 787.723 625.57L787.953 719.94C787.953 739.01 789.593 744.83 791.923 748.08C794.953 752.27 800.073 754.13 805.903 754.36V756.23H763.923V754.36C777.683 753.67 782.823 748.78 782.823 720.17L783.013 620.52C779.553 616.88 776.173 613.49 772.873 610.4C770.763 608.41 768.263 606.21 765.723 604.02C753.783 593.76 738.663 587.86 722.903 587.42C722.733 587.42 722.553 587.41 722.373 587.41C703.443 586.95 683.593 589.89 683.593 589.89C683.593 589.89 693.953 565.84 725.183 565.84C746.553 565.84 761.313 574.13 777.503 588.98C784.973 595.83 792.753 604.08 801.623 613.55C811.143 623.72 819.943 633.45 828.123 642.74C865.503 685.19 889.953 718.36 910.753 741.23L912.043 622.71C912.043 602.94 911.573 591.54 892.913 590.84V588.98H930.003V588.42H982.573V590.28C964.663 592.37 964.663 604 964.663 608.89V690.77C964.663 706.12 965.823 718.45 969.783 727.75C976.993 744.73 992.343 754.73 1010.95 754.73C1016.3 754.73 1028.63 753.33 1039.56 745.89C1050.49 738.45 1060.26 724.72 1060.26 700.3V608.89C1060.26 603.54 1060.26 591.91 1042.12 590.28V588.42H1148.18C1187.49 588.42 1197.03 615.87 1197.03 632.15C1197.03 649.6 1186.33 667.74 1161.91 672.16V672.63C1174.24 678.68 1182.38 689.38 1189.59 701.47L1204.71 727.06C1220.06 753.11 1228.2 753.34 1233.32 753.81V755.67H1202.85L1202.84 755.66Z" fill="#758C6D"/>
<path d="M703 0C314.74 0 0 314.75 0 703C0 1091.25 314.75 1406 703 1406C1091.25 1406 1406 1091.25 1406 703C1406 314.75 1091.26 0 703 0ZM703 1310.01C367.76 1310.01 96 1038.25 96 703.01C96 367.77 367.76 96 703 96C1038.24 96 1310 367.76 1310 703C1310 1038.24 1038.24 1310 703 1310V1310.01Z" fill="#758C6D"/>
<path d="M1177.69 633.55C1177.69 617.03 1169.32 592.84 1135.82 592.84C1130.47 592.84 1127.68 593.3 1125.35 593.77V669.83H1134.89C1166.06 669.83 1177.69 655.87 1177.69 633.54V633.55Z" fill="#758C6D"/>
</svg>
