<svg xmlns="http://www.w3.org/2000/svg" xmlns:xlink="http://www.w3.org/1999/xlink" version="1.1" width="512" height="512" x="0" y="0" viewBox="0 0 512 512" style="enable-background:new 0 0 512 512" xml:space="preserve" class=""><g><circle cx="256" cy="256" r="255.9" fill="#758c6d" opacity="1" data-original="#758c6d" class=""/><path fill="#758c6d" d="M497.2 341.6 360.1 112c-3.5-5.8-55.2 116.3-62 116.3L210.6 112l12.2 281.4 76.4 114.1c95.3-15.5 168.9-84 198-165.9z" opacity="1" data-original="#758c6d" class=""/><path fill="#ffffff" d="m256 274.8 40.3-154.4c2.3-8.3 9.4-12.4 20.7-12.4h29.8c13.6 0 17.7 6.8 17.7 14.7-.1 3-.6 6.1-1.5 9l-73.5 256.2c-3 10.9-7.5 16.2-22.2 16.2h-22.6c-14.7 0-19.2-5.3-22.2-16.2L149 131.7c-.9-2.9-1.4-5.9-1.5-9 0-7.9 4.1-14.7 17.7-14.7H195c11.3 0 18.4 4.1 20.7 12.4z" opacity="1" data-original="#ffffff" class=""/></g></svg>